<svg version="1.0" xmlns="http://www.w3.org/2000/svg" width="4000.000000pt" height="4000.000000pt"
  viewBox="0 0 4000.000000 4000.000000" preserveAspectRatio="xMidYMid meet" fill="black">
  <g transform="translate(0.000000,4000.000000) scale(0.100000,-0.100000)" stroke="none">
    <path d="M17684 38386 c-3 -8 17 -44 49 -87 31 -40 65 -98 77 -133 11 -33 27
-72 34 -86 8 -14 22 -54 31 -90 10 -36 21 -69 25 -75 10 -15 40 -135 71 -290
13 -63 13 -359 -1 -485 -5 -52 -14 -140 -20 -195 -5 -55 -19 -176 -30 -270
-36 -291 -42 -381 -31 -474 10 -95 57 -329 70 -346 4 -5 18 -50 31 -100 13
-49 26 -94 30 -100 4 -5 18 -64 29 -130 12 -66 27 -134 32 -151 5 -18 12 -90
16 -162 5 -119 4 -133 -14 -163 -11 -19 -28 -59 -37 -89 -10 -30 -21 -63 -27
-73 -24 -44 -61 -295 -66 -452 l-5 -130 -41 -30 c-23 -16 -53 -37 -67 -45 -14
-9 -59 -38 -100 -66 -41 -28 -82 -53 -90 -56 -13 -5 -158 -101 -343 -227 -27
-18 -50 -31 -52 -29 -2 2 5 44 16 93 11 50 24 113 29 140 13 70 42 178 50 190
4 6 15 37 25 70 9 33 28 84 41 113 13 29 24 57 24 63 0 6 8 28 19 48 10 20 29
61 42 91 13 30 26 57 29 60 3 3 16 30 30 60 14 30 31 61 37 68 7 7 13 17 13
22 0 19 122 170 194 240 96 95 119 136 110 199 -7 46 -19 71 -35 71 -5 0 -9
-7 -9 -15 0 -8 -7 -15 -15 -15 -32 0 -103 -56 -210 -164 -97 -97 -205 -224
-205 -240 0 -3 -18 -33 -40 -67 -22 -34 -40 -68 -40 -76 0 -7 -4 -13 -8 -13
-5 0 -20 -27 -33 -60 -13 -33 -26 -60 -30 -60 -3 0 -19 -44 -34 -97 -15 -54
-31 -107 -36 -118 -5 -11 -15 -77 -23 -146 -8 -70 -22 -143 -30 -163 -8 -20
-24 -83 -35 -140 -23 -124 -64 -210 -128 -272 -24 -24 -49 -44 -54 -44 -10 0
-65 35 -184 118 -38 27 -81 55 -95 62 -14 7 -60 39 -102 72 -42 32 -81 58 -85
58 -5 0 -14 9 -21 20 -7 11 -17 20 -23 20 -6 0 -48 27 -95 60 -46 33 -87 60
-90 60 -3 0 -31 18 -61 40 -89 64 -118 51 -33 -14 28 -21 50 -42 50 -47 0 -5
5 -9 11 -9 12 0 59 -37 194 -153 116 -99 276 -231 373 -306 23 -18 42 -36 42
-39 -1 -8 -78 -64 -102 -74 -40 -16 -205 -187 -305 -315 -12 -15 -48 -62 -81
-103 -32 -41 -67 -88 -77 -105 -11 -16 -25 -34 -32 -38 -7 -4 -13 -12 -13 -17
0 -5 -29 -50 -65 -99 -36 -48 -65 -91 -65 -95 0 -3 -18 -33 -40 -65 -22 -32
-40 -61 -40 -65 0 -4 -5 -12 -10 -19 -19 -22 -100 -152 -100 -160 0 -5 -8 -21
-19 -35 -19 -28 -29 -46 -139 -242 -113 -203 -195 -357 -333 -625 -47 -93 -96
-188 -108 -210 -24 -45 -81 -172 -81 -179 0 -3 -24 -56 -53 -118 -30 -62 -60
-129 -67 -148 -7 -19 -18 -41 -24 -49 -8 -11 -8 -15 2 -19 8 -2 10 -8 3 -15
-11 -14 -35 -104 -57 -207 -38 -185 -46 -268 -48 -495 l-1 -230 35 -70 c19
-38 36 -72 38 -76 3 -7 -99 8 -149 23 -20 5 -58 8 -85 4 -299 -34 -475 -33
-589 3 -78 25 -204 83 -250 116 -16 12 -46 30 -65 40 -33 17 -195 134 -293
212 -118 93 -167 124 -237 149 -41 15 -84 33 -95 40 -11 6 -31 14 -45 17 -24
6 -178 114 -224 157 -126 118 -310 270 -329 270 -3 0 -32 16 -64 35 -32 19
-64 35 -71 35 -7 0 -31 9 -55 19 -48 22 -176 61 -201 61 -9 0 -16 4 -16 8 0
10 -111 38 -185 47 -27 3 -66 10 -85 15 -19 5 -57 14 -85 21 -27 6 -71 25 -96
40 -48 30 -84 38 -77 17 8 -24 112 -96 163 -113 27 -9 59 -21 70 -25 11 -5 56
-16 100 -25 44 -9 94 -24 110 -32 17 -8 55 -23 85 -33 253 -86 343 -143 566
-358 67 -64 139 -132 160 -150 50 -41 154 -112 166 -112 14 0 185 -79 233
-107 73 -44 182 -139 336 -295 91 -92 173 -168 181 -168 9 0 18 -6 21 -13 3
-7 30 -22 61 -32 31 -11 56 -22 56 -26 0 -3 35 -16 78 -28 42 -12 85 -27 95
-32 38 -21 194 -31 382 -24 362 12 564 -40 825 -213 47 -31 92 -62 100 -69 8
-7 56 -46 106 -87 210 -173 510 -531 784 -936 8 -12 40 -56 70 -98 77 -107
151 -228 203 -332 12 -25 25 -46 30 -48 4 -2 7 -8 7 -12 0 -5 20 -51 44 -102
24 -51 47 -104 51 -118 4 -14 12 -34 19 -45 6 -11 36 -94 65 -185 30 -91 60
-179 67 -197 8 -17 14 -36 14 -41 0 -12 87 -278 100 -307 14 -31 17 -137 4
-142 -6 -2 -51 43 -100 99 -245 285 -520 551 -739 714 -11 8 -42 31 -70 51
l-50 36 31 -34 c113 -126 175 -191 308 -320 143 -138 377 -378 432 -444 77
-91 135 -184 154 -250 12 -38 25 -78 31 -87 20 -37 10 -146 -22 -241 -33 -100
-182 -409 -261 -540 -26 -45 -56 -103 -66 -129 -9 -27 -20 -48 -23 -48 -4 0
-10 -17 -14 -38 -11 -65 -18 -69 -64 -39 -22 15 -44 27 -48 27 -3 0 -43 24
-87 54 -102 67 -123 78 -130 67 -16 -25 20 -68 124 -151 14 -11 36 -29 50 -40
l25 -21 -29 6 c-53 11 -230 24 -339 25 -93 0 -109 2 -114 18 -8 19 -91 144
-102 152 -4 3 -10 12 -13 20 -11 29 -195 236 -279 313 -112 103 -274 188 -280
147 -1 -5 -2 -14 -3 -19 -1 -5 27 -28 60 -50 76 -51 224 -203 287 -297 26 -38
66 -97 89 -131 103 -150 112 -173 65 -173 -12 0 -35 -7 -50 -15 -15 -8 -56
-22 -90 -31 -34 -10 -78 -25 -97 -34 -19 -10 -69 -25 -110 -35 -41 -9 -84 -21
-95 -25 -42 -18 -174 -32 -278 -28 -91 2 -107 1 -105 -12 10 -53 216 -75 437
-46 69 9 130 20 135 25 6 4 54 18 106 31 52 13 100 26 105 30 6 4 39 12 75 19
79 14 726 10 752 -5 9 -5 93 -83 186 -175 l170 -165 11 -159 c6 -87 8 -161 5
-164 -3 -3 -20 12 -37 34 -103 128 -259 277 -360 342 -40 25 -95 61 -123 80
-58 38 -66 40 -57 16 7 -21 83 -103 95 -103 11 0 91 -61 165 -126 57 -50 183
-194 183 -209 0 -3 11 -23 25 -43 14 -20 31 -57 39 -82 40 -133 39 -127 26
-188 -11 -56 -11 -64 14 -132 14 -39 47 -102 73 -138 75 -105 132 -194 139
-216 4 -12 15 -39 24 -61 10 -22 26 -79 34 -125 9 -47 21 -99 26 -115 5 -17
19 -111 30 -210 11 -99 25 -191 30 -205 5 -14 18 -65 30 -114 11 -49 24 -94
29 -100 4 -6 16 -33 25 -61 21 -57 119 -257 145 -295 10 -14 25 -40 35 -59
l16 -35 -23 22 c-24 23 -76 54 -167 99 -30 16 -57 31 -60 34 -6 7 -128 53
-230 86 -41 13 -82 28 -90 32 -8 4 -51 18 -95 31 -44 13 -84 27 -90 30 -5 4
-28 13 -50 20 -22 6 -62 22 -90 35 -27 13 -75 33 -105 45 -30 12 -86 42 -123
66 -37 24 -70 44 -74 44 -10 0 -137 98 -167 129 -17 17 -33 31 -38 31 -14 0
-9 -69 8 -108 9 -20 24 -65 34 -100 11 -35 33 -85 49 -113 17 -27 31 -54 31
-59 0 -5 9 -14 20 -20 11 -6 20 -16 20 -23 0 -16 102 -117 118 -117 7 0 12 -4
12 -9 0 -5 12 -16 28 -24 95 -51 248 -127 254 -127 3 0 35 -13 70 -29 35 -16
85 -36 113 -46 27 -9 54 -20 60 -24 5 -5 28 -14 50 -21 45 -15 173 -77 195
-96 8 -6 33 -22 54 -34 60 -33 120 -86 152 -133 16 -23 32 -44 35 -47 4 -3 17
-34 29 -70 13 -36 27 -69 31 -75 13 -18 38 -127 49 -220 7 -49 19 -110 28
-135 15 -44 20 -413 26 -1870 0 -156 -14 -315 -34 -370 -5 -14 -21 -126 -35
-250 -15 -124 -30 -229 -35 -235 -4 -5 -11 -26 -15 -45 -8 -40 -67 -151 -90
-170 -14 -11 -23 -11 -53 -1 -20 8 -44 19 -52 25 -21 17 -137 86 -143 86 -8 0
-180 105 -249 152 -31 21 -61 38 -65 38 -13 0 -142 106 -206 168 -67 65 -181
199 -200 234 -7 12 -36 58 -65 100 -28 42 -52 79 -52 82 0 3 -33 54 -72 113
-86 127 -202 269 -336 409 -53 56 -110 118 -127 138 -29 35 -45 44 -45 27 0
-11 96 -141 115 -155 8 -6 23 -23 33 -38 9 -15 52 -73 95 -128 42 -55 77 -103
77 -105 0 -3 24 -40 54 -83 29 -42 65 -99 80 -127 14 -27 42 -77 61 -110 18
-33 42 -76 52 -95 29 -58 154 -240 164 -240 5 0 9 -6 9 -13 0 -14 170 -187
184 -187 4 0 17 -11 28 -25 11 -14 24 -25 29 -25 5 0 41 -25 81 -56 40 -31 80
-59 88 -62 8 -3 56 -34 106 -69 51 -35 95 -63 99 -63 5 0 32 -16 61 -35 29
-19 57 -35 63 -35 6 0 11 -4 11 -10 0 -5 5 -10 10 -10 22 0 118 -69 140 -100
18 -26 59 -178 60 -222 0 -22 -196 2 -235 29 -11 7 -28 13 -39 13 -22 0 -243
106 -321 154 -27 17 -62 37 -77 45 -15 8 -64 44 -109 80 -45 36 -96 77 -114
91 -40 31 -135 131 -218 229 -93 110 -187 230 -187 237 0 4 -24 39 -53 78 -30
39 -59 82 -67 96 -7 14 -39 62 -71 107 -33 45 -59 84 -59 88 0 8 -128 188
-155 218 -8 9 -15 19 -15 22 0 3 -26 40 -58 83 -32 42 -66 91 -77 107 -10 17
-51 71 -90 120 -68 86 -185 256 -185 269 0 4 -5 12 -10 19 -14 16 -90 137 -90
142 0 2 -25 43 -55 90 -30 46 -55 88 -55 91 0 4 -18 35 -40 70 -22 35 -40 66
-40 70 0 3 -25 42 -55 86 -30 44 -55 82 -55 85 0 4 -45 62 -100 130 -55 68
-100 128 -100 133 0 5 -6 13 -12 17 -15 9 -108 145 -108 157 0 4 -12 20 -27
35 -16 15 -50 56 -78 92 -27 35 -142 157 -256 271 -114 114 -222 230 -240 257
-18 28 -36 51 -41 51 -4 0 -8 5 -8 11 0 6 -17 36 -38 67 -55 81 -122 196 -122
210 0 7 -3 12 -7 12 -5 0 -17 21 -27 48 -10 26 -28 67 -39 92 -11 25 -27 81
-37 125 -9 44 -19 87 -22 95 -10 26 -28 182 -30 250 -1 64 16 176 32 215 5 11
19 67 31 125 12 58 26 110 30 115 15 21 29 133 29 239 0 115 -6 156 -21 156
-18 0 -48 -65 -55 -117 -7 -55 -20 -66 -44 -38 -18 22 -6 132 21 195 21 49 23
51 53 44 40 -9 170 -68 221 -101 93 -61 112 -75 206 -159 92 -83 151 -124 224
-159 80 -37 148 -65 152 -61 14 14 -17 51 -83 100 -41 31 -78 56 -81 56 -10 0
-103 99 -103 110 0 14 -245 260 -259 260 -6 0 -30 11 -52 26 -22 14 -68 35
-102 47 -41 15 -62 28 -61 38 1 9 33 56 71 106 39 49 82 107 96 129 15 21 40
55 56 74 l30 35 43 -41 c113 -108 276 -178 487 -211 102 -16 144 -12 139 14
-4 21 -13 25 -148 69 -172 55 -255 104 -386 225 l-51 47 46 54 c25 29 51 60
58 68 54 65 273 309 373 415 113 120 340 393 377 454 9 14 36 56 60 93 23 36
43 71 43 77 0 6 3 11 8 11 4 0 12 10 18 23 6 12 34 67 62 122 73 142 110 246
127 352 17 100 46 187 97 284 46 88 88 185 94 219 10 45 -13 92 -59 127 -41
31 -44 36 -60 120 -19 97 -54 191 -112 298 -29 52 -71 103 -169 200 -73 73
-149 139 -171 149 -22 11 -98 68 -170 128 -183 153 -367 299 -385 306 -8 3
-55 32 -103 64 -48 32 -90 58 -93 58 -3 0 -32 18 -64 40 -32 22 -64 40 -69 40
-6 0 -11 4 -11 8 0 5 -12 14 -27 21 -14 7 -49 27 -77 45 -69 44 -187 115 -249
150 -29 15 -59 34 -67 41 -8 7 -31 20 -50 29 -104 48 -259 204 -275 276 -7 30
-41 67 -52 56 -17 -17 8 -156 28 -156 4 0 10 -11 13 -25 12 -46 136 -158 280
-253 76 -51 140 -92 142 -92 2 0 42 -27 88 -60 47 -33 88 -60 91 -60 4 0 49
-30 100 -67 51 -38 102 -75 115 -83 44 -29 225 -158 253 -181 37 -28 25 -36
-69 -45 -93 -9 -168 -44 -200 -95 -34 -55 -14 -78 39 -45 34 22 117 29 188 16
35 -7 69 -15 74 -19 6 -4 37 -13 70 -20 33 -7 89 -27 125 -44 148 -70 365
-236 390 -298 8 -19 16 -36 20 -39 3 -3 14 -25 24 -50 10 -25 26 -63 36 -85
10 -22 26 -78 35 -125 10 -47 22 -96 29 -109 15 -33 15 -462 0 -482 -6 -8 -14
-38 -17 -68 -4 -36 -15 -65 -33 -88 l-27 -36 -16 30 c-9 16 -42 63 -73 105
-32 42 -58 81 -58 87 0 6 -9 16 -20 23 -11 7 -20 17 -20 22 0 5 -17 32 -37 60
-20 28 -50 76 -65 106 l-29 55 5 -55 c3 -30 10 -56 16 -58 5 -2 10 -10 10 -19
0 -18 93 -206 110 -223 3 -3 16 -25 29 -50 13 -25 30 -52 37 -60 17 -21 57
-130 50 -137 -8 -8 -4 -14 -60 99 -27 53 -73 127 -103 165 -29 37 -56 75 -59
83 -3 8 -34 41 -67 72 -189 176 -277 263 -277 274 0 7 -11 21 -25 32 -14 11
-25 23 -25 26 0 4 -26 41 -59 84 -32 42 -68 96 -80 119 -11 23 -25 44 -30 47
-5 4 -17 30 -27 59 -19 60 -32 79 -46 71 -10 -7 -3 -65 12 -93 4 -9 18 -41 30
-71 13 -30 44 -88 71 -128 27 -40 49 -76 49 -80 0 -17 161 -202 289 -331 73
-74 136 -142 140 -150 3 -9 28 -48 54 -88 26 -40 57 -98 69 -130 12 -32 25
-60 28 -63 3 -3 16 -28 29 -57 l24 -51 -24 -39 c-12 -21 -26 -40 -29 -43 -4
-3 -13 -16 -19 -29 l-13 -23 -33 34 c-37 38 -71 56 -160 88 -109 38 -252 166
-302 270 -28 60 -65 110 -80 110 -17 0 -16 -4 16 -92 32 -87 77 -165 140 -242
56 -70 145 -148 191 -169 31 -14 140 -87 140 -94 0 -8 -52 -93 -61 -98 -4 -3
-27 8 -49 24 -23 16 -65 37 -93 47 -29 9 -56 20 -62 24 -5 4 -38 15 -72 24
-135 37 -258 106 -364 204 -33 30 -62 52 -65 50 -8 -9 14 -55 30 -61 9 -4 16
-12 16 -19 0 -8 33 -46 73 -85 70 -69 138 -111 277 -172 30 -13 87 -39 126
-57 39 -19 75 -34 80 -34 6 0 18 -6 29 -13 27 -21 16 -36 -226 -317 -83 -96
-168 -195 -188 -219 -20 -24 -82 -92 -138 -149 l-101 -105 -34 13 c-18 7 -47
19 -65 26 -37 17 -79 18 -89 3 -3 -6 3 -23 13 -38 32 -42 35 -65 18 -137 -12
-54 -24 -77 -65 -124 -28 -32 -50 -61 -50 -65 0 -4 -15 -28 -34 -54 -28 -39
-133 -242 -200 -389 -21 -47 -31 -46 -42 0 -3 18 -10 39 -15 48 -5 8 -18 51
-29 95 -12 44 -25 89 -30 100 -9 19 -30 102 -86 335 -14 58 -28 112 -32 120
-9 23 -70 290 -99 430 -14 69 -29 132 -33 141 -5 9 -18 79 -30 155 -12 76 -25
148 -30 159 -9 21 -36 188 -46 290 -4 33 -10 65 -14 70 -4 6 -10 42 -14 80 -9
96 -37 258 -46 270 -4 6 -13 41 -20 79 -9 49 -21 78 -41 100 -24 27 -34 31
-81 31 -71 0 -113 -19 -129 -58 -7 -18 -27 -65 -46 -105 -18 -41 -33 -78 -33
-83 0 -18 -14 -8 -80 54 -36 34 -77 71 -90 82 -14 11 -51 41 -83 67 -32 26
-115 75 -185 108 -207 101 -245 121 -283 151 -20 16 -41 29 -46 29 -4 0 -14 9
-21 20 -7 11 -18 20 -26 20 -17 0 -176 154 -202 195 -10 17 -51 74 -91 127
-40 53 -73 102 -73 108 0 5 -4 10 -9 10 -5 0 -18 15 -29 33 -51 84 -278 341
-358 407 -24 19 -90 76 -148 127 -58 51 -119 99 -136 108 -16 8 -30 20 -30 25
0 6 -6 10 -12 10 -7 1 -42 23 -78 50 -36 28 -71 50 -77 50 -7 0 -13 5 -13 10
0 6 -8 14 -17 17 -10 4 -46 26 -79 50 -34 24 -67 43 -73 43 -6 0 -11 4 -11 10
0 5 -13 16 -29 25 -16 8 -67 51 -114 95 -71 67 -89 91 -113 148 -15 37 -31 72
-35 77 -26 39 -63 286 -59 405 6 186 1 436 -10 553 -9 92 -10 150 -3 205 10
76 53 244 72 279 5 10 28 59 51 108 43 90 114 203 138 218 6 4 12 13 12 18 0
6 15 34 34 62 19 29 42 79 51 112 10 33 21 69 26 80 17 42 31 164 27 235 -6
133 -52 193 -175 234 l-53 18 0 48 c0 63 52 160 155 290 41 52 75 99 75 105 1
5 17 28 36 50 114 130 154 186 192 273 40 91 42 111 7 72 -10 -12 -35 -30 -54
-43 -20 -12 -61 -47 -91 -79 -54 -56 -56 -58 -90 -48 -78 22 -88 18 -192 -90
-53 -54 -102 -110 -110 -124 -7 -13 -35 -57 -62 -96 -61 -89 -76 -140 -76
-252 0 -81 24 -226 39 -238 3 -3 15 -30 25 -60 11 -30 30 -75 44 -99 21 -36
26 -60 30 -142 5 -98 4 -99 -33 -176 -21 -43 -51 -97 -67 -120 -15 -23 -28
-44 -28 -47 0 -4 -24 -41 -53 -84 -30 -42 -62 -94 -72 -115 -9 -20 -23 -37
-30 -37 -6 0 -20 17 -31 37 -10 21 -41 72 -69 113 -27 42 -54 83 -60 92 -5 9
-36 52 -67 97 -32 44 -58 82 -58 85 0 2 -19 35 -42 72 -59 98 -172 321 -194
385 -10 30 -21 59 -25 64 -4 6 -16 42 -28 81 -20 67 -44 104 -68 104 -6 0 -23
-13 -36 -30 -49 -58 -113 -27 -192 90 -16 25 -53 76 -82 114 -29 37 -53 74
-53 82 0 8 11 37 25 64 36 71 55 130 55 173 0 39 -12 46 -41 24 -19 -14 -101
-114 -116 -141 -9 -16 -23 -2 -113 106 -56 67 -144 166 -195 218 -50 52 -99
106 -107 120 -9 14 -67 84 -128 155 -206 238 -186 213 -288 345 -33 42 -65 87
-72 100 -10 19 -15 103 -20 325 -4 183 -11 308 -17 320 -6 11 -18 64 -27 118
-9 55 -25 118 -35 140 -10 23 -26 65 -35 94 -20 61 -124 180 -181 207 -42 20
-105 32 -105 20 0 -12 52 -64 65 -64 12 0 55 -41 55 -53 0 -3 11 -22 24 -42
14 -20 30 -62 37 -93 7 -31 16 -61 19 -67 8 -11 25 -136 35 -254 4 -41 3 -149
-1 -240 l-7 -166 -26 35 c-80 107 -531 520 -568 520 -6 0 -13 7 -17 15 -3 8
-11 15 -17 15 -7 0 -27 11 -45 25 -64 49 -265 128 -281 111 -8 -7 46 -55 62
-56 6 0 39 -20 75 -45 36 -25 88 -61 116 -80 56 -39 354 -338 354 -356 0 -6 9
-21 20 -33 85 -92 401 -530 389 -540 -6 -5 -243 28 -254 36 -5 3 -100 16 -210
28 -110 12 -202 26 -205 30 -5 7 -172 34 -520 85 -91 13 -181 28 -200 34 -19
5 -89 22 -155 36 -66 14 -129 30 -140 35 -11 5 -49 17 -85 26 -153 41 -279
129 -294 206 -3 17 -6 86 -6 155 0 124 -19 247 -44 288 -7 11 -24 50 -37 88
-13 37 -27 67 -31 67 -5 0 -8 4 -8 10 0 5 -22 49 -50 97 -73 129 -89 155 -149
240 -29 43 -62 92 -73 111 -10 18 -52 78 -93 132 -41 54 -75 101 -75 105 0 10
-52 76 -120 155 -31 36 -69 85 -85 110 -34 55 -232 253 -272 272 -18 9 -38 33
-57 73 -26 52 -30 74 -34 170 -5 125 7 222 36 286 40 90 91 215 102 254 7 22
16 45 20 50 20 28 44 188 43 290 -1 104 -21 234 -42 272 -6 10 -19 44 -30 75
-11 32 -25 66 -30 75 -52 96 -151 319 -161 363 -7 30 -16 63 -21 72 -5 10 -9
28 -9 41 0 13 -6 31 -13 40 -11 16 -14 16 -32 3 -18 -13 -20 -26 -20 -129 0
-66 5 -124 12 -138 6 -13 21 -67 34 -119 12 -52 25 -99 30 -105 4 -5 17 -48
28 -95 12 -47 25 -92 31 -101 17 -31 40 -181 40 -264 0 -85 -22 -228 -38 -249
-5 -6 -19 -40 -31 -75 -12 -35 -30 -80 -40 -100 -9 -20 -24 -56 -31 -81 -7
-25 -17 -49 -21 -55 -18 -24 -32 -184 -26 -296 l7 -117 -33 15 c-125 62 -273
179 -452 359 -99 99 -186 169 -271 217 -31 18 -161 27 -243 17 -134 -16 -411
-63 -405 -69 3 -3 108 -8 233 -11 l228 -5 84 -42 c109 -55 212 -142 324 -276
61 -74 119 -129 181 -176 87 -65 259 -168 318 -191 50 -19 235 -152 278 -200
61 -67 88 -101 88 -108 0 -4 34 -47 76 -97 41 -49 96 -121 121 -160 25 -38 68
-98 95 -131 26 -34 48 -65 48 -68 0 -3 26 -43 57 -89 32 -45 63 -89 68 -98 6
-9 23 -36 39 -60 16 -24 47 -75 69 -114 21 -38 45 -81 53 -95 26 -47 55 -115
91 -210 32 -88 35 -106 40 -237 l5 -142 -37 -15 c-21 -9 -46 -16 -56 -16 -17
0 -39 -27 -39 -48 0 -14 177 -165 230 -196 44 -26 95 -51 175 -86 47 -21 253
-72 264 -66 8 6 237 -41 266 -54 11 -5 106 -21 210 -35 691 -94 698 -95 975
-120 96 -9 184 -21 196 -27 16 -7 23 -26 33 -86 7 -42 16 -81 21 -87 4 -5 13
-27 19 -47 7 -20 66 -144 132 -275 65 -131 119 -241 119 -245 0 -4 13 -35 29
-70 16 -35 36 -90 46 -123 9 -33 20 -64 25 -70 4 -5 18 -50 31 -100 12 -49 27
-91 31 -93 4 -2 8 -11 8 -19 0 -24 39 -153 61 -200 10 -24 19 -46 19 -50 0
-18 80 -166 121 -224 26 -37 54 -80 63 -97 9 -17 51 -68 94 -114 76 -81 143
-167 154 -198 3 -8 31 -48 62 -88 31 -40 56 -75 56 -78 0 -12 172 -206 418
-469 174 -188 332 -376 332 -398 0 -3 28 -47 62 -98 l61 -92 9 -111 c4 -61 12
-122 17 -136 5 -14 15 -52 22 -85 7 -33 23 -80 36 -105 13 -25 23 -48 23 -53
0 -4 15 -31 33 -60 18 -29 39 -64 46 -80 38 -74 309 -348 461 -466 184 -143
400 -346 570 -537 71 -78 180 -207 326 -384 29 -36 60 -73 69 -82 8 -10 15
-21 15 -25 0 -18 83 -103 100 -103 10 0 29 -12 42 -27 13 -16 73 -68 133 -118
61 -49 153 -130 206 -180 53 -49 128 -117 168 -149 40 -33 168 -152 283 -265
186 -182 214 -214 240 -269 15 -35 28 -69 28 -75 0 -7 7 -25 16 -42 15 -29 37
-117 90 -360 13 -60 28 -121 34 -135 20 -50 89 -317 149 -575 17 -71 35 -137
40 -145 5 -9 12 -36 16 -60 4 -25 20 -83 35 -130 16 -47 36 -114 45 -148 9
-35 20 -71 25 -80 14 -27 42 -123 37 -128 -4 -4 -20 1 -92 32 -114 48 -355 61
-495 25 -46 -12 -86 -25 -90 -30 -19 -31 -243 -38 -365 -11 -94 20 -251 62
-269 71 -25 14 -193 31 -234 24 -49 -9 -96 11 -185 76 -43 33 -83 59 -87 59
-5 0 -15 6 -22 13 -8 6 -23 17 -33 23 -18 10 -20 21 -17 94 1 45 7 91 13 101
15 28 23 275 11 339 -27 144 -110 345 -209 506 -62 102 -94 137 -319 354 -16
17 -33 30 -37 30 -4 0 -34 20 -68 45 -34 25 -67 45 -74 45 -7 0 -15 7 -19 15
-3 8 -12 15 -19 15 -8 0 -32 13 -54 29 -42 30 -164 91 -183 91 -22 0 -9 -39
19 -57 17 -10 70 -55 120 -101 49 -45 93 -82 98 -82 5 0 20 -12 34 -27 13 -16
43 -44 64 -64 56 -51 170 -174 236 -255 50 -61 109 -157 109 -176 0 -4 13 -35
29 -70 16 -35 37 -94 46 -133 9 -38 22 -81 28 -94 15 -31 16 -496 0 -512 -10
-10 -95 3 -138 20 -11 5 -44 14 -74 21 -30 7 -90 30 -133 52 -44 22 -82 38
-84 35 -6 -6 60 -58 106 -83 19 -10 37 -22 40 -25 3 -3 22 -12 42 -20 23 -8
33 -16 26 -20 -11 -7 -184 -12 -423 -13 -100 0 -140 4 -175 18 -25 9 -53 20
-64 23 -29 9 -15 -16 19 -35 17 -9 32 -20 35 -23 3 -4 28 -15 55 -25 40 -14
95 -19 275 -24 258 -8 342 -23 453 -82 89 -48 251 -178 239 -190 -29 -29 -370
-15 -436 17 -16 8 -79 24 -140 35 -61 11 -120 25 -131 30 -39 18 -302 43 -460
44 -162 1 -267 -14 -334 -48 -14 -7 -60 -21 -101 -31 -41 -10 -82 -22 -90 -26
-22 -12 -143 -39 -203 -46 -28 -3 -58 -11 -66 -17 -16 -13 -357 -11 -374 2 -7
5 -68 19 -137 31 -69 12 -134 26 -145 31 -11 5 -67 19 -125 31 -58 12 -112 26
-120 30 -8 5 -49 18 -90 30 -41 11 -80 25 -86 30 -6 5 -37 18 -70 28 -32 11
-78 29 -101 40 -23 12 -47 21 -52 21 -6 0 -34 11 -63 24 -29 13 -78 31 -108
41 -30 10 -59 21 -65 25 -23 18 -165 53 -235 57 -88 6 -190 -11 -190 -33 0
-11 16 -14 70 -14 39 0 70 -4 70 -9 0 -5 19 -11 42 -15 23 -4 67 -20 98 -36
94 -50 249 -120 265 -120 8 0 15 -4 15 -8 0 -4 24 -17 53 -27 28 -10 78 -31
109 -47 31 -15 63 -28 70 -28 8 0 22 -6 33 -14 11 -7 52 -23 90 -35 39 -12 79
-27 90 -32 11 -5 68 -20 127 -33 59 -14 111 -26 115 -29 4 -3 76 -17 158 -32
83 -14 159 -30 170 -35 11 -5 45 -12 75 -15 56 -7 149 -29 185 -45 61 -26 177
-35 263 -20 37 6 71 15 77 19 5 5 44 18 85 30 41 12 84 26 95 31 11 5 56 19
100 31 44 12 91 27 105 34 40 21 169 35 314 35 157 0 447 -19 461 -30 6 -4 37
-10 71 -13 75 -8 162 -40 234 -86 30 -20 80 -47 110 -60 30 -13 71 -31 90 -39
66 -30 253 -24 295 8 6 4 28 13 50 20 22 7 56 23 75 36 19 13 56 28 83 35 41
10 54 9 95 -6 26 -10 51 -24 55 -32 4 -7 12 -13 17 -13 5 0 44 -26 87 -59 43
-32 107 -74 143 -92 61 -31 71 -33 160 -33 106 2 152 14 270 73 41 21 99 44
128 51 28 8 52 17 52 22 0 11 56 10 94 -1 17 -5 54 -14 81 -21 52 -11 98 -40
202 -124 95 -78 163 -124 209 -142 23 -9 44 -24 47 -34 7 -29 -27 -93 -61
-112 -39 -23 -67 -23 -107 2 l-32 20 -22 -24 -22 -23 22 -39 c12 -21 74 -91
138 -154 64 -63 128 -131 141 -150 41 -58 70 -116 70 -142 0 -13 4 -28 9 -33
5 -6 16 -80 25 -165 9 -85 19 -172 23 -192 l5 -36 -43 5 c-24 2 -53 8 -64 13
-28 12 -216 24 -380 25 -138 0 -140 0 -143 -23 -2 -14 3 -24 15 -29 10 -3 29
-14 43 -23 44 -30 153 -86 205 -105 28 -10 55 -22 61 -27 6 -4 40 -18 75 -29
115 -37 329 -141 329 -160 0 -5 5 -9 11 -9 25 0 234 -208 388 -385 41 -47 154
-200 163 -221 6 -13 15 -24 20 -24 4 0 8 -5 8 -11 0 -6 20 -40 45 -75 25 -34
45 -65 45 -68 0 -6 103 -164 192 -294 134 -196 190 -268 295 -381 166 -178
194 -209 279 -306 209 -238 234 -273 234 -330 0 -70 -8 -84 -51 -91 -22 -4
-39 -10 -39 -15 0 -37 -148 31 -269 122 -46 35 -94 71 -106 79 -12 8 -64 56
-116 106 -237 230 -307 282 -469 344 -30 12 -60 25 -65 30 -12 10 -202 50
-238 50 -14 0 -29 5 -32 10 -8 12 -232 14 -239 1 -3 -4 -36 -11 -74 -14 -93
-9 -239 -35 -260 -47 -9 -5 -53 -19 -97 -31 -44 -12 -84 -25 -90 -29 -5 -4
-44 -18 -85 -30 -41 -12 -79 -26 -85 -30 -5 -4 -41 -17 -78 -30 -38 -12 -94
-35 -125 -51 -31 -16 -62 -29 -69 -29 -7 0 -29 -9 -50 -19 -21 -11 -78 -28
-128 -37 -49 -9 -99 -20 -110 -25 -11 -4 -40 -10 -64 -14 -25 -3 -59 -12 -75
-19 -95 -42 -169 -47 -237 -15 -114 54 -209 104 -264 140 -33 21 -73 46 -89
55 -16 9 -61 39 -100 68 -71 51 -154 105 -211 135 -16 9 -32 18 -35 21 -36 36
-389 198 -470 215 -19 4 -60 16 -90 26 -52 17 -369 59 -452 59 -20 0 -40 5
-43 10 -3 6 -21 10 -40 10 -19 0 -37 -4 -40 -10 -3 -5 -16 -10 -29 -10 -12 0
-56 -11 -96 -25 -89 -30 -135 -32 -149 -6 -10 17 -19 60 -41 191 -23 130 -94
352 -143 447 -16 30 -60 84 -103 125 -141 136 -284 332 -284 391 0 7 -7 25
-15 40 -8 15 -23 61 -35 102 -20 72 -62 160 -85 180 -6 6 -24 35 -39 65 -63
128 -114 198 -202 279 -62 57 -137 111 -153 111 -6 0 -11 3 -11 8 0 4 -38 27
-85 51 -73 37 -100 46 -178 54 -51 6 -95 15 -98 20 -10 14 -43 4 -47 -15 -3
-15 51 -47 130 -77 23 -8 262 -201 323 -259 31 -30 96 -115 91 -119 -1 -2 -25
1 -52 7 -27 5 -113 13 -192 16 -78 4 -145 11 -148 16 -3 4 -20 8 -38 8 -18 0
-57 9 -87 19 -199 70 -315 208 -358 425 -12 59 -26 115 -31 124 -13 22 -37
112 -79 295 -11 48 -27 100 -35 115 -8 15 -24 47 -35 72 -23 49 -52 102 -100
180 -17 28 -31 52 -31 55 0 13 -93 147 -123 176 -42 42 -142 102 -159 97 -7
-3 13 -31 49 -70 51 -54 76 -97 157 -261 53 -108 96 -200 96 -205 0 -5 9 -29
19 -53 11 -24 23 -62 27 -84 l7 -40 -21 25 c-12 14 -44 52 -72 85 -27 33 -77
83 -112 110 -132 107 -200 168 -221 199 -12 18 -43 64 -70 103 -47 68 -47 70
-58 184 -24 266 -45 400 -73 476 -49 133 -95 220 -137 262 -14 14 -28 34 -32
43 -3 9 -30 35 -59 58 -29 23 -56 48 -61 55 -7 14 -176 131 -202 141 -31 12
-13 -23 36 -71 69 -68 186 -208 231 -277 85 -130 128 -317 128 -556 0 -47 4
-99 9 -116 5 -17 17 -71 25 -121 22 -126 68 -215 154 -298 95 -93 228 -197
251 -197 23 0 231 -255 231 -284 0 -6 8 -27 19 -46 10 -19 26 -62 36 -95 9
-33 21 -65 25 -70 5 -6 17 -42 28 -81 11 -39 24 -79 30 -90 6 -10 18 -41 28
-69 18 -54 84 -183 115 -227 33 -46 28 -58 -68 -151 -28 -26 -41 -51 -30 -59
1 -1 196 -4 432 -7 291 -4 436 -10 450 -17 11 -6 38 -17 60 -24 22 -7 56 -24
75 -39 19 -15 48 -35 64 -45 15 -10 31 -27 33 -37 3 -10 9 -19 13 -19 4 0 10
-33 14 -72 8 -97 35 -258 46 -283 5 -11 12 -31 16 -45 12 -45 34 -67 137 -146
115 -88 159 -130 198 -190 42 -65 94 -181 133 -298 35 -104 36 -113 34 -229
-4 -146 -4 -145 117 -275 128 -136 209 -202 248 -202 44 0 74 23 82 63 11 50
43 105 71 123 40 27 156 20 219 -12 28 -15 61 -37 75 -50 46 -42 137 -75 240
-85 86 -9 106 -15 210 -66 63 -31 147 -78 187 -105 40 -26 74 -48 77 -48 3 0
33 -19 68 -43 73 -49 121 -77 198 -113 30 -14 71 -34 90 -44 19 -9 60 -25 90
-35 30 -10 60 -21 65 -25 6 -4 44 -18 85 -30 41 -12 80 -25 85 -29 22 -17 106
-33 186 -35 46 -1 192 1 324 6 283 11 256 4 583 152 68 31 127 56 133 56 5 0
9 4 9 8 0 4 21 14 46 21 26 8 65 24 88 36 22 12 66 30 96 40 30 10 60 21 65
25 6 4 53 18 105 29 52 12 111 27 131 32 87 26 293 -18 369 -79 25 -20 129
-119 232 -219 102 -101 193 -183 201 -183 8 0 17 -7 21 -15 3 -8 10 -15 16
-15 5 0 37 -20 71 -45 34 -25 67 -45 75 -45 8 0 14 -5 14 -10 0 -6 10 -14 23
-19 12 -5 39 -21 60 -35 21 -15 60 -37 85 -51 45 -23 139 -89 192 -135 48 -41
215 -171 226 -176 23 -10 111 -91 194 -178 210 -219 422 -425 611 -589 112
-98 216 -185 231 -195 14 -9 70 -51 123 -92 53 -41 104 -79 113 -85 22 -13
203 -156 262 -207 54 -47 137 -115 275 -223 95 -76 175 -148 175 -159 0 -3 30
-42 66 -87 36 -45 69 -92 74 -105 5 -13 14 -24 20 -24 5 0 10 -5 10 -11 0 -6
16 -38 36 -71 19 -34 44 -98 55 -142 11 -45 24 -94 29 -111 8 -27 24 -154 50
-415 5 -52 18 -171 29 -265 25 -216 26 -480 5 -1099 -12 -343 -15 -622 -11
-1091 3 -346 1 -695 -4 -775 -5 -80 -12 -212 -14 -295 -25 -867 -41 -1254 -55
-1300 -5 -16 -16 -131 -25 -255 -9 -124 -25 -274 -36 -335 -24 -131 -93 -428
-108 -468 -9 -23 4 -15 70 45 243 221 437 324 731 390 144 32 355 32 518 0
225 -45 413 -105 507 -165 24 -15 49 -24 58 -21 11 5 18 0 22 -15 3 -12 51
-57 107 -100 129 -99 311 -288 404 -416 102 -142 112 -153 112 -134 0 9 -9 61
-20 115 -58 280 -66 370 -110 1289 -6 121 -15 238 -20 260 -10 41 -34 403 -49
720 -5 99 -15 221 -24 270 -14 80 -39 325 -52 505 -2 36 -9 184 -15 330 -5
146 -14 333 -20 415 -6 83 -13 269 -17 415 -9 391 23 1353 48 1425 5 17 23
156 39 310 38 363 74 620 91 641 5 6 16 91 24 190 8 98 20 211 25 249 6 39 15
117 20 175 5 57 14 125 19 150 5 25 13 81 16 125 4 44 10 89 15 100 8 18 28
151 46 305 4 30 10 61 15 70 5 8 18 84 29 169 12 85 25 162 30 171 5 9 17 50
26 91 28 125 129 363 197 463 47 70 49 95 11 134 -34 33 -47 39 -129 59 -68
17 -100 19 -132 8 -42 -14 -25 17 50 89 64 63 186 170 249 219 77 58 251 151
316 168 28 7 52 16 52 19 0 4 35 17 78 30 42 12 82 26 87 30 6 4 44 15 85 25
216 51 318 103 510 264 63 52 166 99 252 116 45 8 89 13 98 10 9 -3 75 -14
146 -25 183 -27 403 -69 423 -79 9 -5 50 -18 91 -29 108 -29 290 -109 425
-186 33 -19 77 -44 98 -56 21 -11 76 -48 122 -81 46 -32 86 -59 89 -59 3 0 49
-33 103 -73 182 -135 252 -175 304 -177 9 0 29 -7 45 -15 15 -8 62 -22 104
-31 41 -9 93 -25 116 -35 23 -10 46 -19 51 -19 6 0 27 -12 49 -26 21 -14 52
-34 68 -43 81 -45 155 -100 227 -168 120 -115 184 -148 268 -139 31 4 74 6 96
6 39 0 106 -17 115 -30 4 -5 137 -80 253 -142 39 -21 440 -214 482 -233 17 -7
50 -21 75 -30 25 -10 57 -23 71 -31 39 -20 195 -65 279 -80 370 -66 892 -91
1014 -48 44 15 106 19 106 6 0 -4 28 -16 62 -26 46 -14 83 -17 145 -14 73 4
88 8 127 36 33 24 65 35 132 48 357 64 907 90 1059 50 39 -10 81 -25 95 -32
14 -7 50 -25 80 -38 71 -32 128 -66 198 -119 163 -120 395 -211 537 -210 101
1 221 38 258 81 50 55 36 167 -26 213 -28 20 -43 24 -110 23 -45 0 -82 -5 -89
-12 -14 -14 -189 -17 -204 -4 -5 5 -29 14 -54 21 -25 7 -70 28 -102 47 -31 19
-59 34 -63 34 -3 0 -36 24 -73 53 -37 30 -77 59 -90 66 -12 7 -20 16 -17 21 6
9 326 170 339 170 4 0 22 6 39 14 18 8 66 25 107 39 41 13 95 32 119 41 27 11
100 21 184 27 76 5 144 12 150 16 7 4 47 20 91 35 43 15 83 31 90 36 10 9 100
57 336 180 58 30 110 58 115 62 38 29 117 43 265 45 135 1 161 5 203 23 27 12
67 25 90 28 66 11 127 79 127 144 0 40 -69 109 -148 146 -31 15 -75 42 -98 60
-23 19 -44 34 -47 34 -10 0 -66 60 -71 78 -6 16 1 32 41 104 26 47 133 178
227 279 45 48 101 108 126 135 45 49 123 116 170 146 38 24 171 49 293 55 59
3 110 10 113 14 7 12 114 11 166 -1 38 -8 341 -44 598 -70 109 -11 740 -11
845 0 101 10 363 57 390 69 11 5 52 17 90 25 82 19 295 85 310 96 6 4 32 14
58 23 27 9 71 30 98 47 27 16 53 30 57 30 22 0 330 288 398 372 67 83 50 90
-36 14 -33 -30 -90 -76 -125 -103 -36 -26 -107 -81 -158 -121 -111 -89 -187
-128 -355 -181 -160 -51 -268 -76 -457 -108 -82 -13 -172 -29 -200 -34 -68
-14 -800 -6 -935 10 -112 13 -307 40 -480 66 -79 12 -163 15 -336 13 l-231 -3
11 35 c6 19 14 37 18 40 27 19 25 233 -2 265 -20 24 14 35 112 35 111 0 293
-17 323 -30 11 -5 43 -12 70 -15 78 -10 198 -35 220 -45 32 -16 118 -40 143
-40 26 0 28 11 5 32 -26 23 -180 94 -233 108 -25 7 -52 16 -62 20 -9 5 -65 19
-125 31 -59 11 -117 25 -128 30 -33 14 -183 29 -297 29 l-107 0 -58 61 c-32
34 -70 67 -85 75 -25 13 -98 20 -98 9 0 -2 17 -22 38 -43 20 -21 47 -57 60
-80 l23 -42 -29 0 c-16 0 -31 -3 -35 -6 -3 -4 -34 -16 -69 -29 -35 -12 -90
-39 -123 -58 -33 -20 -74 -44 -92 -52 -107 -50 -246 -165 -302 -249 -9 -13
-34 -50 -57 -82 -39 -56 -84 -143 -98 -191 -6 -19 -23 -137 -46 -313 -10 -82
-47 -235 -65 -275 -7 -16 -17 -42 -20 -57 -4 -16 -10 -28 -14 -28 -4 0 -70
-69 -146 -152 -192 -210 -229 -244 -311 -284 -38 -18 -74 -34 -78 -34 -4 0
-51 -21 -104 -46 -53 -25 -110 -52 -127 -59 -16 -7 -86 -41 -155 -73 -69 -33
-152 -68 -185 -77 -33 -10 -65 -21 -70 -26 -6 -4 -49 -17 -95 -29 -47 -12 -94
-25 -105 -30 -27 -13 -94 -27 -212 -44 -74 -12 -197 -15 -503 -15 -223 0 -443
-4 -490 -10 -110 -14 -702 -42 -935 -45 -103 -1 -188 -7 -199 -13 -11 -6 -29
-7 -45 -2 -14 5 -102 19 -196 33 -271 38 -372 65 -506 132 -63 33 -140 70
-170 83 -169 77 -386 190 -581 304 -54 31 -102 57 -108 57 -5 0 -10 4 -10 9 0
5 -11 12 -24 15 -13 3 -45 20 -72 39 -27 18 -61 38 -75 45 -14 8 -55 36 -90
62 -35 27 -68 49 -72 50 -4 0 -35 18 -67 40 -32 22 -64 40 -69 40 -6 0 -11 5
-11 10 0 6 -6 10 -12 11 -7 0 -33 14 -58 30 -25 16 -61 36 -80 45 -19 9 -61
35 -95 59 -62 44 -94 64 -205 123 -36 19 -84 47 -107 63 -23 16 -46 29 -52 29
-6 0 -11 5 -11 10 0 6 -5 10 -11 10 -6 0 -34 15 -62 34 -29 18 -61 38 -72 44
-15 9 8 11 103 12 128 0 310 17 327 30 6 4 33 11 60 14 79 11 196 36 214 46 9
5 41 17 71 26 137 43 368 182 571 346 72 58 141 100 266 164 192 98 246 113
431 121 67 3 125 10 128 14 7 12 171 11 179 -1 3 -5 34 -10 68 -10 73 0 310
-26 364 -39 21 -5 87 -21 146 -36 60 -14 116 -30 125 -35 9 -5 49 -19 87 -30
39 -12 84 -28 100 -35 111 -50 236 -113 271 -137 23 -15 47 -28 52 -28 6 0 15
-8 21 -17 5 -10 13 -14 18 -10 9 10 -45 57 -64 57 -7 0 -13 5 -13 10 0 6 -10
14 -22 19 -13 5 -39 20 -58 33 -81 55 -278 149 -365 173 -33 9 -69 20 -80 26
-25 11 -142 35 -220 44 -33 4 -64 11 -70 15 -5 5 -86 13 -180 20 -93 6 -194
15 -224 21 -30 5 -97 9 -148 9 -51 0 -93 3 -93 8 0 4 31 21 68 39 69 33 222
139 222 154 0 4 16 16 35 25 38 18 105 89 105 111 0 7 5 13 10 13 6 0 10 7 10
15 0 9 12 21 28 27 43 18 172 101 172 110 0 4 6 8 13 8 24 0 214 177 336 313
105 116 209 252 260 341 9 15 33 54 53 85 21 31 38 62 38 69 0 6 5 12 10 12 6
0 14 8 17 18 4 9 26 45 50 78 24 34 43 67 43 73 0 6 5 11 10 11 6 0 14 8 17
18 4 9 19 38 35 65 19 33 23 47 14 47 -8 0 -19 -13 -24 -30 -6 -16 -36 -61
-66 -99 -31 -39 -56 -73 -56 -77 0 -3 -24 -38 -53 -78 -29 -39 -77 -107 -107
-151 -29 -44 -66 -96 -82 -115 -15 -19 -28 -40 -28 -46 0 -7 -7 -14 -15 -17
-8 -4 -25 -23 -38 -44 -24 -38 -339 -357 -369 -374 -9 -5 -55 -38 -103 -74
-81 -60 -115 -77 -115 -57 0 4 5 13 10 18 6 6 22 64 36 130 14 65 32 145 39
177 7 32 21 138 29 235 18 191 17 189 40 337 21 134 34 192 56 240 10 22 23
66 30 98 8 32 17 60 22 63 10 6 11 74 0 74 -4 0 -17 -30 -30 -67 -13 -38 -34
-90 -47 -118 -13 -27 -33 -75 -45 -105 -22 -60 -60 -261 -60 -320 0 -20 -4
-40 -9 -45 -4 -6 -14 -66 -21 -135 -6 -69 -18 -154 -25 -190 -40 -193 -66
-307 -74 -325 -5 -11 -18 -47 -28 -79 -11 -36 -26 -64 -38 -70 -11 -6 -22 -14
-25 -17 -3 -3 -32 -16 -65 -29 -33 -13 -64 -27 -70 -31 -5 -4 -44 -17 -85 -29
-41 -12 -88 -27 -105 -35 -16 -7 -61 -21 -100 -31 -38 -9 -74 -20 -80 -25 -5
-4 -39 -15 -75 -24 -77 -20 -151 -50 -280 -114 -340 -169 -471 -254 -600 -389
-146 -153 -161 -168 -238 -236 -41 -36 -89 -71 -108 -78 -19 -6 -34 -15 -34
-19 0 -13 -87 -28 -190 -33 -58 -2 -229 2 -380 9 -151 8 -295 15 -320 15 -37
0 -55 7 -99 41 -30 23 -68 49 -85 59 -17 10 -60 36 -96 58 -83 52 -296 158
-380 189 -36 13 -74 28 -85 33 -68 33 -303 104 -440 134 -102 22 -140 35 -195
64 -43 23 -56 37 -67 67 l-13 39 57 58 c32 32 61 58 65 58 20 0 272 129 336
171 40 27 76 49 80 49 29 0 352 318 352 346 0 8 4 14 8 14 8 0 86 116 120 178
9 17 32 57 49 88 18 32 43 87 55 123 12 36 25 71 29 76 4 6 17 46 28 90 12 44
26 89 31 100 5 11 19 65 30 120 12 55 26 109 30 120 20 45 42 265 55 530 3 72
10 144 15 160 9 30 33 344 46 585 3 69 10 130 14 135 4 6 10 37 14 70 8 78 35
225 46 250 5 11 11 37 15 57 9 55 88 200 165 303 65 86 167 191 350 361 47 43
193 185 325 314 132 130 260 253 285 273 69 54 211 147 226 147 8 0 14 4 14 9
0 5 33 19 73 31 39 12 91 29 114 36 22 7 71 20 107 28 82 19 337 109 439 155
23 10 53 22 67 26 84 24 356 151 530 245 105 58 270 145 345 183 22 11 47 26
55 32 8 7 35 23 60 36 25 13 49 28 55 32 5 4 46 30 89 57 105 66 147 129 95
145 -22 7 -136 -12 -154 -26 -5 -4 -53 -17 -105 -29 -52 -12 -99 -25 -105 -29
-5 -3 -59 -18 -120 -33 -60 -14 -162 -40 -225 -58 -63 -18 -158 -43 -210 -56
-52 -13 -102 -28 -110 -33 -9 -4 -60 -18 -115 -30 -55 -12 -109 -27 -120 -32
-29 -14 -292 -71 -483 -104 l-33 -6 16 30 c17 34 34 45 85 56 19 4 49 13 65
20 17 7 71 23 120 35 50 12 95 26 100 30 6 4 44 17 85 29 41 12 89 28 105 36
17 7 59 21 95 30 36 9 79 22 95 30 17 8 71 21 120 30 50 10 99 21 110 25 11 5
55 12 97 15 140 12 583 87 615 104 10 5 43 17 73 27 30 9 133 54 228 100 162
79 257 114 307 114 12 0 25 4 30 9 6 5 75 19 155 31 80 11 154 25 165 29 11 5
69 19 130 31 60 12 114 25 120 30 5 4 39 16 75 25 36 10 76 24 90 31 40 22
223 101 250 109 14 4 36 14 50 24 21 13 53 16 195 15 107 0 178 -4 191 -12 11
-6 78 -16 148 -22 102 -9 135 -16 164 -33 21 -12 50 -29 66 -37 84 -43 183
-166 287 -356 23 -44 52 -95 64 -114 12 -19 25 -43 28 -53 10 -25 125 -203
181 -280 42 -56 128 -136 235 -218 131 -100 190 -138 245 -156 22 -7 50 -18
61 -23 62 -28 224 -38 330 -21 46 8 53 6 85 -18 34 -27 92 -63 208 -128 81
-46 560 -283 669 -332 111 -49 260 -150 405 -273 37 -32 70 -58 74 -58 4 0 22
-15 39 -32 36 -38 223 -195 281 -236 22 -15 59 -39 84 -53 25 -14 54 -30 65
-37 42 -23 122 -60 160 -72 22 -7 58 -21 81 -31 22 -10 72 -25 110 -34 38 -9
78 -21 89 -26 12 -6 102 -20 200 -33 99 -12 189 -28 200 -33 11 -6 35 -27 52
-45 l33 -34 -21 -104 c-11 -58 -20 -112 -21 -120 0 -38 30 -141 55 -183 50
-85 160 -177 212 -177 8 0 15 -4 15 -9 0 -11 138 -39 245 -50 189 -20 312 -75
375 -167 27 -38 31 -55 45 -198 9 -86 18 -164 22 -174 26 -76 70 -147 134
-216 69 -74 184 -166 208 -166 6 0 11 -4 11 -9 0 -5 17 -18 38 -29 20 -11 59
-32 87 -46 65 -35 112 -81 126 -125 29 -90 70 -117 154 -103 50 9 55 36 8 40
-38 4 -44 11 -73 82 -31 73 -64 117 -114 149 -23 14 -48 32 -56 38 -8 7 -55
46 -105 86 -113 92 -212 199 -238 256 -11 25 -23 77 -28 115 -4 39 -10 87 -13
106 -3 19 -8 77 -11 128 -8 109 -26 177 -58 212 -51 57 -154 120 -197 120 -10
0 -22 5 -25 10 -3 6 -21 10 -40 10 -50 0 -279 40 -289 51 -6 5 -16 9 -23 9
-13 0 -99 38 -118 52 -50 36 -100 89 -117 122 -17 32 -19 50 -14 100 19 174
19 196 1 244 -10 26 -22 50 -27 53 -6 4 -15 17 -22 30 -18 37 -128 95 -204
109 -37 7 -80 16 -97 20 -16 5 -68 16 -115 25 -47 9 -98 23 -115 30 -16 7 -63
23 -104 35 -41 12 -83 27 -95 35 -12 7 -32 16 -46 20 -14 4 -63 25 -108 46
-46 22 -86 39 -88 39 -3 0 -48 29 -102 64 -53 35 -160 121 -237 191 -77 70
-173 153 -212 184 -40 31 -73 61 -73 68 0 16 542 12 685 -5 132 -16 238 -38
276 -58 74 -38 388 -52 518 -23 53 12 161 62 217 102 68 47 104 46 209 -7 l89
-46 171 2 c163 2 173 1 248 -25 143 -50 190 -53 465 -34 136 10 286 17 335 17
l87 0 64 45 c36 25 72 45 80 45 17 0 230 -108 275 -139 14 -10 33 -20 43 -24
9 -3 53 -31 97 -61 44 -31 83 -56 87 -56 3 0 25 -14 50 -31 25 -17 66 -38 92
-46 26 -9 52 -19 57 -23 20 -16 167 -30 427 -40 147 -7 272 -9 278 -5 39 24
-47 60 -196 80 -65 9 -135 20 -154 25 -19 5 -66 12 -105 15 -71 6 -182 31
-200 44 -5 5 -25 13 -44 20 -28 9 -162 91 -181 111 -5 5 -127 84 -165 107 -11
7 -51 31 -89 54 -155 94 -175 102 -252 102 -59 0 -80 -4 -115 -25 -24 -14 -66
-38 -94 -53 l-50 -26 -301 3 c-198 2 -306 7 -315 14 -8 6 -57 21 -109 34 -52
13 -99 27 -105 32 -14 12 -193 10 -217 -3 -15 -8 -31 -8 -57 -1 -20 6 -53 16
-73 22 -20 6 -53 22 -72 35 -55 37 -100 46 -179 35 -39 -6 -84 -19 -101 -29
-143 -87 -221 -111 -364 -111 -57 0 -104 -4 -107 -10 -15 -23 -84 -9 -170 35
-57 29 -117 50 -169 61 -45 8 -97 20 -116 26 -32 9 -221 8 -770 -4 -139 -3
-264 17 -417 68 -74 25 -142 49 -152 54 -9 4 -88 43 -176 85 -88 43 -183 93
-212 111 -28 19 -56 34 -62 34 -6 0 -11 6 -11 13 0 7 28 22 63 35 59 21 104
43 257 125 36 19 85 45 110 58 25 13 47 26 50 29 3 3 21 13 40 22 51 25 153
84 196 113 20 14 40 25 44 25 5 0 38 18 74 40 36 22 70 40 76 40 5 0 10 4 10
8 0 4 27 14 61 21 33 8 76 24 95 38 20 13 50 30 67 38 112 53 289 180 385 277
74 74 238 271 258 311 8 15 19 27 24 27 6 0 10 5 10 11 0 6 29 49 65 97 36 48
93 124 126 170 93 126 311 331 352 332 4 0 35 18 67 40 32 22 64 40 69 40 6 0
11 4 11 10 0 5 15 16 33 25 49 23 233 191 343 312 139 155 190 197 311 258 50
25 91 37 153 45 120 16 203 31 215 39 6 4 39 16 75 25 36 10 90 29 120 43 30
14 66 29 78 34 71 27 300 229 377 332 107 142 177 311 210 507 8 52 20 104 25
115 5 11 18 70 30 130 12 61 25 115 29 120 5 6 16 48 26 94 21 101 82 273 101
284 8 4 14 14 14 20 0 16 92 107 108 107 6 0 17 9 24 20 7 11 17 20 21 20 5 0
28 13 51 28 22 15 70 38 106 51 36 12 73 27 83 32 10 5 64 19 120 30 56 11
111 24 122 29 11 4 53 18 94 31 148 45 241 112 451 323 91 91 168 166 173 166
7 0 114 48 222 100 99 48 146 67 221 89 39 11 112 44 163 72 91 50 94 51 137
40 24 -6 72 -27 107 -46 194 -108 284 -140 397 -139 129 1 184 22 271 102 75
69 108 124 109 179 0 49 -15 47 -53 -6 -25 -34 -57 -61 -104 -88 -65 -36 -72
-38 -151 -36 -46 1 -88 6 -95 11 -7 5 -41 16 -77 25 -61 15 -148 55 -230 106
-19 11 -53 26 -75 31 -22 6 -48 15 -57 20 -10 6 -28 10 -41 10 -30 0 -138 -43
-176 -69 -16 -12 -32 -21 -35 -21 -3 0 -30 -11 -59 -25 -28 -14 -79 -33 -112
-41 -33 -9 -69 -21 -80 -28 -11 -6 -48 -23 -82 -36 -35 -14 -63 -28 -63 -32 0
-5 -4 -8 -9 -8 -5 0 -53 -21 -108 -46 -54 -25 -108 -50 -120 -55 -13 -5 -23
-13 -23 -19 0 -5 -5 -10 -12 -10 -22 0 -79 -53 -159 -147 -97 -116 -133 -146
-207 -173 -32 -11 -70 -27 -87 -35 -16 -7 -68 -21 -115 -30 -47 -10 -94 -21
-105 -26 -11 -4 -78 -13 -150 -19 -159 -13 -239 -27 -286 -51 l-37 -18 -7 92
c-11 126 -8 223 8 276 12 38 19 47 53 58 53 19 108 8 150 -29 47 -41 69 -32
61 25 -8 56 -76 123 -136 133 -23 4 -41 8 -41 11 0 2 21 48 46 101 56 118 85
183 109 242 9 25 25 63 35 85 10 22 26 69 36 105 9 36 20 70 25 75 23 32 55
270 68 508 l8 149 49 41 c27 23 115 105 195 183 80 78 159 150 175 160 16 10
33 24 37 31 4 7 13 13 18 13 6 0 39 20 73 45 35 25 67 45 70 45 4 0 12 5 19
10 26 21 208 150 213 150 3 0 28 16 57 35 28 19 56 35 61 35 5 0 16 7 25 15 9
8 27 24 41 34 14 11 22 22 19 25 -6 7 -171 -43 -179 -54 -3 -4 -20 -12 -38
-18 -18 -6 -70 -32 -115 -58 -45 -25 -120 -66 -167 -91 -129 -68 -240 -135
-240 -144 0 -5 -5 -9 -11 -9 -5 0 -46 -27 -89 -60 -86 -64 -170 -106 -195 -96
-8 3 -15 15 -15 27 0 25 27 135 40 164 5 11 18 65 30 120 12 55 26 118 33 140
7 22 12 92 11 155 0 101 -4 123 -27 179 -15 35 -33 71 -40 80 -8 9 -29 45 -48
81 l-34 64 0 226 c0 144 4 239 12 265 6 22 19 83 28 135 15 84 22 102 64 160
26 36 60 88 75 115 16 28 60 80 97 116 93 91 179 191 179 208 0 8 -9 24 -19
35 -20 21 -20 21 28 91 26 39 69 99 95 135 57 77 81 129 66 144 -22 22 -232
-228 -400 -478 -36 -54 -73 -107 -82 -119 -10 -12 -45 -58 -79 -102 -34 -44
-64 -82 -66 -84 -2 -3 -26 2 -53 11 -27 9 -51 13 -54 10 -13 -13 -4 -55 18
-90 l25 -37 -15 -130 c-9 -71 -19 -139 -24 -150 -19 -41 -42 -279 -36 -360 7
-86 25 -184 37 -200 4 -5 17 -62 29 -125 13 -63 26 -123 31 -132 12 -23 12
-183 0 -206 -4 -9 -16 -47 -24 -84 -9 -37 -25 -87 -35 -110 -15 -32 -21 -78
-26 -183 -8 -182 -25 -365 -36 -390 -5 -11 -14 -69 -20 -130 -13 -125 -29
-213 -59 -335 -25 -96 -92 -294 -121 -356 -11 -22 -20 -43 -20 -47 0 -3 -38
-76 -84 -160 -46 -85 -87 -165 -91 -178 -4 -13 -15 -38 -25 -55 -57 -100 -88
-316 -89 -626 -1 -233 -13 -323 -51 -398 -15 -30 -43 -84 -62 -120 -45 -89
-64 -133 -88 -215 -12 -38 -25 -79 -30 -90 -6 -11 -21 -66 -34 -122 -14 -57
-27 -106 -30 -111 -2 -4 -10 -48 -16 -98 -12 -96 -29 -180 -41 -204 -4 -8 -17
-45 -28 -82 -11 -37 -28 -76 -36 -85 -9 -10 -27 -33 -42 -51 -66 -84 -246
-170 -414 -197 -57 -9 -113 -20 -124 -25 -11 -5 -51 -14 -90 -20 -38 -6 -88
-19 -110 -30 -22 -10 -61 -27 -86 -38 -78 -33 -180 -107 -297 -214 -175 -160
-336 -291 -433 -351 -19 -12 -35 -25 -37 -29 -2 -5 -8 -8 -14 -8 -5 0 -29 -13
-53 -30 -24 -16 -86 -52 -138 -79 -158 -81 -207 -117 -359 -267 -93 -92 -237
-264 -247 -296 -2 -7 -10 -17 -17 -21 -8 -4 -14 -13 -14 -18 0 -6 -18 -37 -40
-69 -22 -32 -40 -62 -40 -65 0 -18 -119 -161 -196 -236 -117 -113 -179 -159
-217 -159 -29 0 -30 1 -23 43 3 23 13 125 21 225 8 101 18 189 23 195 6 7 13
28 17 47 3 19 37 98 75 175 101 209 107 224 120 304 18 109 9 164 -41 251 -21
38 -71 90 -86 90 -14 0 -18 -16 -5 -22 17 -7 63 -99 71 -142 20 -109 -24 -227
-154 -411 -39 -55 -79 -120 -89 -145 -11 -25 -27 -63 -37 -85 -21 -48 -46
-157 -63 -280 -17 -122 -68 -227 -144 -296 -83 -76 -102 -84 -209 -82 -106 2
-189 21 -281 64 -80 38 -129 75 -252 188 -107 99 -282 238 -320 255 -14 6 -36
19 -50 28 -14 9 -50 24 -80 33 -30 9 -64 21 -75 26 -48 20 -197 29 -557 30
-425 2 -616 10 -626 26 -7 9 -145 51 -254 76 -53 12 -60 22 -25 33 12 4 24 10
27 13 3 3 30 17 60 31 30 14 57 28 60 31 13 18 238 83 344 100 116 19 152 32
140 50 -12 20 -349 2 -379 -21 -5 -4 -46 -15 -90 -25 -44 -9 -93 -23 -110 -30
-16 -8 -66 -26 -110 -41 -44 -14 -84 -30 -90 -34 -5 -4 -33 -15 -62 -25 -47
-17 -58 -17 -135 -4 -46 8 -82 19 -80 24 1 6 48 22 105 36 100 25 202 61 283
99 23 11 44 20 48 20 9 0 199 93 206 100 3 3 17 11 33 18 24 10 239 128 367
200 25 14 63 35 85 47 22 11 73 41 113 65 250 152 234 146 351 125 53 -10 101
-22 107 -26 5 -5 71 -18 145 -29 74 -12 142 -26 151 -31 22 -12 128 -12 128 0
0 15 -23 27 -75 41 -27 8 -52 16 -55 20 -3 4 -34 14 -70 24 -36 10 -78 24 -95
31 -16 8 -63 24 -102 36 -40 13 -73 26 -73 29 0 4 17 15 38 26 39 20 74 43
157 105 28 20 66 40 85 44 19 4 40 11 45 16 19 15 247 29 480 29 127 1 329 8
450 16 362 25 376 26 399 20 12 -3 30 -13 41 -23 33 -29 107 -61 160 -68 51
-6 174 8 210 25 11 5 58 18 105 30 46 12 89 25 95 30 6 5 36 18 67 30 73 27
162 74 235 125 60 41 263 236 263 252 0 5 14 22 31 39 35 33 60 71 37 59 -7
-5 -29 -21 -49 -37 -20 -15 -40 -28 -44 -28 -4 0 -17 -9 -29 -19 -170 -154
-283 -229 -411 -273 -33 -12 -62 -24 -65 -28 -3 -3 -43 -17 -90 -29 -47 -13
-95 -27 -107 -32 -13 -5 -23 -6 -23 -2 0 7 66 80 181 200 44 45 79 85 79 88 0
4 36 47 79 96 74 83 115 140 276 377 33 48 84 118 113 154 28 36 52 71 52 77
0 6 9 16 20 23 11 7 20 16 20 21 0 4 19 37 43 72 105 157 236 399 224 411 -7
7 -56 -62 -73 -101 -8 -19 -19 -35 -24 -35 -6 0 -10 -6 -10 -14 0 -8 -20 -41
-45 -74 -25 -33 -45 -63 -45 -66 0 -8 -76 -106 -177 -231 -108 -132 -123 -151
-198 -250 -37 -49 -71 -91 -76 -93 -5 -2 -9 -8 -9 -14 0 -27 -123 -164 -486
-540 -41 -42 -74 -81 -74 -86 0 -5 -9 -17 -19 -26 -17 -16 -26 -16 -75 -6
-135 28 -269 130 -294 223 -15 59 -15 101 1 152 17 58 82 162 137 220 25 28
59 66 74 85 26 31 27 35 10 41 -11 3 -30 1 -44 -7 -71 -37 -205 -185 -236
-261 -9 -21 -23 -54 -32 -73 -18 -38 -21 -162 -4 -183 5 -7 15 -29 21 -49 7
-20 19 -42 27 -48 29 -25 17 -39 -23 -28 -82 21 -197 37 -349 48 -87 6 -177
15 -199 20 -22 5 -61 12 -87 15 -42 5 -48 9 -48 30 0 23 67 120 114 164 14 14
26 29 26 35 0 5 43 53 95 105 52 53 166 173 255 267 147 157 296 298 377 356
18 13 74 55 125 94 192 146 370 250 618 361 76 34 124 55 200 90 36 17 90 40
120 53 30 12 86 43 125 69 116 77 152 92 250 103 50 5 105 17 124 26 33 16 33
17 27 66 -3 27 -10 54 -16 60 -20 20 -11 71 20 106 16 19 29 38 30 42 0 4 25
40 55 79 49 63 67 99 49 99 -3 0 -58 -48 -122 -108 -137 -125 -210 -187 -272
-231 -25 -17 -70 -49 -100 -70 -30 -21 -109 -62 -175 -91 -66 -29 -143 -63
-172 -76 -28 -13 -55 -24 -60 -24 -4 0 -19 -6 -33 -13 -14 -7 -54 -23 -90 -35
-36 -13 -76 -29 -90 -36 -14 -7 -50 -21 -80 -31 -30 -10 -59 -21 -65 -25 -5
-4 -35 -15 -65 -25 -58 -18 -168 -63 -235 -94 -22 -11 -73 -35 -113 -54 -39
-19 -69 -30 -65 -24 4 7 57 66 117 131 267 288 309 334 402 442 92 105 186
210 318 350 70 75 155 170 188 210 33 40 76 83 96 97 38 25 259 147 267 147
14 0 347 172 497 257 46 25 97 53 113 63 17 9 50 29 75 44 25 16 64 40 88 55
24 14 80 50 125 79 45 30 93 60 107 67 14 8 74 57 135 109 60 53 113 96 117
96 5 0 16 7 26 16 9 8 62 49 117 90 55 40 107 80 115 87 8 7 26 20 40 29 79
51 326 299 386 388 13 19 43 62 66 95 73 101 152 260 288 580 23 55 58 132 76
171 36 75 81 219 115 364 63 266 63 269 64 445 l0 170 -35 63 c-26 47 -44 67
-69 78 -53 22 -60 5 -25 -67 26 -56 29 -71 28 -158 -1 -96 -28 -300 -44 -330
-5 -9 -18 -61 -30 -116 -12 -55 -26 -104 -30 -110 -4 -5 -16 -39 -25 -75 -10
-36 -23 -74 -30 -85 -6 -11 -20 -42 -31 -70 -18 -47 -132 -277 -186 -376 -22
-38 -82 -134 -158 -249 -9 -14 -33 -58 -54 -99 -20 -41 -50 -91 -67 -110 -16
-20 -44 -53 -62 -75 -42 -51 -187 -196 -218 -219 -13 -9 -65 -49 -116 -87 -50
-39 -94 -70 -98 -70 -3 0 -61 -40 -128 -90 -67 -49 -162 -119 -212 -154 -49
-36 -98 -72 -107 -81 -10 -8 -21 -15 -24 -15 -8 0 -158 -104 -162 -112 -2 -5
-8 -8 -13 -8 -5 0 -40 -20 -77 -44 -37 -24 -112 -69 -167 -101 -55 -32 -120
-73 -145 -90 -39 -28 -269 -145 -284 -145 -13 0 -4 33 17 68 31 49 101 197
117 247 7 22 16 47 20 55 4 9 18 61 30 115 12 55 26 109 31 120 5 11 18 70 29
130 11 61 25 119 29 130 5 11 19 49 31 85 23 67 116 232 160 285 14 16 39 48
55 70 16 22 85 97 154 167 105 108 122 130 111 143 -19 23 -78 17 -150 -15
l-65 -29 -7 192 c-3 106 -10 302 -15 437 -13 406 -10 761 10 857 9 45 21 90
27 100 13 24 78 187 97 243 8 25 19 54 25 65 22 39 38 122 38 195 0 104 -29
479 -40 515 -5 17 -14 95 -20 175 -13 173 -27 280 -40 295 -5 6 -12 31 -16 55
-10 65 -61 165 -126 247 -48 61 -58 81 -63 127 -9 67 0 110 31 159 33 50 47
87 33 87 -20 0 -65 -29 -98 -63 -44 -47 -76 -156 -59 -204 25 -69 -37 -66 -71
3 -40 80 -39 97 23 221 83 166 111 292 91 411 -7 44 -30 66 -45 42 -4 -6 -10
-35 -14 -63 -3 -29 -18 -79 -34 -112 -16 -33 -37 -80 -48 -105 -10 -25 -22
-49 -27 -55 -4 -5 -26 -39 -49 -75 -37 -58 -42 -73 -46 -141 -3 -45 1 -92 8
-115 16 -52 66 -149 93 -179 12 -13 35 -40 50 -59 16 -20 73 -65 127 -101 64
-42 104 -77 114 -97 20 -40 43 -152 51 -253 3 -44 10 -91 15 -105 6 -14 11
-63 14 -110 2 -47 9 -170 15 -275 17 -272 7 -353 -65 -501 -30 -61 -54 -114
-54 -118 0 -3 -9 -25 -20 -49 -11 -23 -28 -66 -38 -96 -15 -46 -24 -56 -51
-66 -48 -16 -65 -58 -42 -103 72 -135 71 -131 71 -287 0 -154 -7 -185 -62
-255 -27 -35 -48 -87 -48 -121 0 -40 30 -94 63 -114 15 -9 27 -23 27 -31 0 -8
4 -14 8 -14 16 0 32 -101 32 -193 -1 -90 -2 -94 -43 -163 -23 -39 -55 -91 -72
-115 -37 -53 -40 -112 -7 -154 45 -57 25 -128 -64 -227 -59 -66 -75 -111 -120
-348 -13 -69 -28 -134 -33 -145 -5 -11 -19 -72 -31 -135 -13 -63 -26 -119 -30
-125 -4 -5 -18 -44 -30 -85 -12 -41 -30 -93 -40 -115 -10 -22 -25 -56 -33 -75
-8 -19 -37 -66 -65 -103 -29 -37 -52 -70 -52 -73 0 -17 -193 -237 -355 -404
-127 -132 -198 -210 -297 -325 -35 -40 -156 -193 -183 -230 -12 -17 -208 -253
-290 -350 -69 -82 -287 -343 -304 -365 -29 -36 -237 -290 -267 -325 -82 -98
-242 -291 -259 -314 -41 -55 -225 -212 -283 -242 -15 -8 -29 -17 -32 -20 -8
-8 -192 -86 -221 -93 -28 -6 -119 -72 -119 -86 0 -5 -42 -45 -92 -89 -51 -45
-102 -90 -114 -101 -12 -11 -24 -20 -28 -20 -4 0 -37 -24 -74 -53 -58 -45
-214 -154 -300 -209 -26 -16 -32 -15 -132 10 -58 15 -109 30 -115 33 -5 4 -55
16 -110 28 -55 12 -107 26 -115 30 -8 5 -62 18 -120 30 -58 12 -114 26 -125
32 -11 5 -67 16 -125 24 -57 9 -117 22 -134 30 -32 16 -156 21 -171 6 -6 -4
-32 -14 -60 -21 -44 -12 -65 -29 -181 -144 -134 -135 -212 -224 -299 -342 -67
-91 -239 -269 -347 -360 -49 -41 -92 -74 -97 -74 -5 0 -19 8 -32 18 -21 16
-76 48 -194 114 -16 10 -50 28 -75 40 -25 13 -47 26 -50 30 -3 3 -31 11 -63
17 -61 11 -231 0 -292 -19 -16 -5 -82 -19 -145 -31 -63 -11 -124 -25 -135 -29
-11 -5 -73 -18 -138 -30 -65 -11 -125 -25 -135 -30 -9 -5 -62 -19 -117 -31
-55 -12 -104 -25 -110 -29 -5 -4 -37 -15 -70 -25 -57 -16 -130 -46 -205 -84
-174 -88 -218 -109 -239 -116 -36 -11 -380 -188 -424 -218 -21 -14 -47 -29
-58 -32 -10 -4 -19 -11 -19 -16 0 -5 -5 -9 -11 -9 -5 0 -41 -20 -79 -45 -38
-25 -72 -45 -75 -45 -3 0 -46 -29 -96 -65 -49 -36 -93 -65 -97 -65 -4 0 -47
-37 -96 -82 l-88 -81 -24 24 c-30 31 -124 179 -124 197 0 7 -11 32 -24 55 -13
23 -30 67 -37 97 -7 30 -16 59 -21 64 -4 6 -8 22 -8 37 0 27 30 57 72 72 9 3
53 31 97 61 44 31 83 56 87 56 3 0 34 20 68 45 35 25 68 45 74 45 6 0 12 3 14
8 5 11 112 65 233 116 61 26 133 58 160 71 137 64 197 60 440 -29 39 -14 78
-30 87 -36 26 -15 43 -12 85 11 61 34 112 89 145 159 17 36 42 79 55 96 12 17
23 34 23 37 0 4 18 34 40 68 22 34 40 68 40 76 0 7 4 13 8 13 9 0 52 82 121
232 l40 86 3 189 c1 103 -1 238 -6 298 l-8 110 33 50 c66 102 80 122 149 205
50 60 70 93 70 112 0 66 -62 25 -245 -163 -153 -157 -225 -241 -225 -261 0 -8
12 -37 26 -66 l25 -51 -20 -113 c-50 -282 -58 -310 -153 -503 -106 -216 -130
-245 -206 -245 -57 0 -199 19 -227 30 -11 5 -52 16 -91 25 -39 9 -84 23 -99
31 -31 16 -121 19 -130 4 -3 -5 -12 -10 -19 -10 -21 0 -113 -45 -221 -109 -84
-50 -259 -148 -405 -227 -19 -10 -37 -22 -40 -25 -3 -3 -31 -16 -62 -27 l-58
-22 0 103 c0 164 -14 222 -83 357 -16 30 -36 75 -44 100 -8 25 -23 56 -32 70
-10 14 -32 59 -51 100 -18 41 -48 107 -65 145 -18 39 -36 81 -40 95 -4 14 -15
43 -25 65 -10 22 -26 78 -35 125 -9 47 -22 94 -27 105 -15 27 -23 369 -10 430
26 123 65 280 71 285 4 3 17 48 31 100 13 52 27 102 31 110 5 8 19 51 33 95
37 117 84 257 96 280 5 11 19 49 31 85 12 36 25 70 29 75 4 6 17 39 30 75 12
36 25 70 30 75 4 6 11 21 15 35 4 14 17 48 30 75 26 59 79 188 107 265 11 30
24 60 28 65 4 6 18 42 30 80 12 39 26 75 30 80 5 6 20 51 36 100 15 50 30 95
34 100 4 6 17 42 29 80 12 39 26 77 31 86 4 8 18 51 30 95 12 43 27 93 34 109
8 17 21 64 31 105 10 41 21 80 26 85 4 6 17 60 29 120 12 61 26 119 30 130 10
23 25 131 40 290 26 254 6 649 -35 740 -8 17 -24 59 -36 95 -12 36 -35 86 -51
111 -15 25 -28 51 -28 58 0 6 -5 11 -10 11 -6 0 -15 11 -19 23 -35 91 -441
494 -546 542 -27 13 -85 53 -128 90 -44 36 -91 73 -105 83 -32 20 -267 212
-485 394 -87 73 -168 140 -182 148 -13 8 -72 52 -132 98 -59 45 -157 118 -218
162 -147 107 -145 105 -241 188 -46 40 -84 69 -84 64 0 -35 212 -264 295 -318
50 -32 366 -307 614 -534 152 -140 298 -269 370 -330 306 -255 536 -482 599
-590 69 -116 87 -155 117 -247 37 -111 50 -176 60 -295 7 -86 -10 -292 -30
-353 -8 -22 -25 -87 -40 -144 -14 -58 -30 -110 -34 -115 -5 -6 -19 -42 -31
-81 -12 -38 -26 -74 -30 -80 -4 -5 -15 -35 -25 -65 -9 -30 -23 -64 -30 -75 -6
-11 -18 -38 -25 -60 -7 -22 -26 -68 -41 -103 -16 -34 -29 -65 -29 -69 0 -3
-13 -35 -30 -70 -16 -34 -30 -65 -30 -68 0 -5 -20 -49 -95 -210 -13 -27 -38
-81 -55 -120 -18 -38 -57 -122 -87 -185 -31 -63 -82 -171 -115 -240 -118 -245
-190 -399 -236 -500 -11 -25 -36 -79 -55 -120 -62 -135 -94 -214 -107 -265 -8
-27 -16 -52 -20 -55 -7 -6 -54 -161 -78 -260 -30 -121 -18 -559 17 -645 5 -11
16 -56 26 -100 10 -44 28 -104 41 -133 13 -29 24 -57 24 -62 0 -6 9 -29 19
-53 11 -23 29 -76 41 -117 12 -41 25 -79 29 -85 13 -17 80 -238 92 -299 10
-56 31 -201 49 -341 5 -38 12 -185 16 -325 l7 -255 -31 -38 c-63 -78 -102
-219 -117 -417 -4 -52 -11 -99 -15 -105 -4 -5 -10 -39 -13 -75 -16 -200 -39
-397 -47 -412 -6 -10 -10 -29 -10 -43 0 -32 -40 -217 -49 -230 -4 -5 -18 -48
-31 -95 -13 -47 -27 -89 -31 -95 -4 -5 -14 -32 -22 -60 -21 -69 -73 -170 -121
-235 -23 -30 -46 -62 -52 -73 -6 -10 -50 -63 -99 -117 l-88 -99 -16 27 c-25
44 -50 420 -32 482 5 19 20 89 32 155 12 66 25 125 29 130 3 6 15 42 25 80 10
39 28 94 41 123 13 29 24 58 24 64 0 6 9 30 19 52 11 23 31 77 45 120 15 44
30 84 34 90 5 6 19 39 32 74 14 34 28 62 32 62 5 0 8 6 8 13 0 14 68 123 142
226 29 41 58 84 63 95 6 12 25 43 43 70 17 28 32 56 32 63 0 7 4 13 8 13 11 0
39 91 53 170 25 151 25 155 -17 337 -8 34 -14 83 -14 108 0 81 -28 53 -49 -50
-7 -33 -18 -69 -25 -80 -7 -11 -20 -40 -30 -65 -10 -25 -33 -68 -52 -97 -19
-28 -34 -54 -34 -58 0 -19 -164 -222 -289 -355 -235 -252 -391 -431 -391 -448
0 -6 -4 -12 -9 -14 -5 -1 -45 -52 -90 -113 -44 -60 -87 -117 -96 -126 -8 -9
-15 -19 -15 -23 0 -4 -20 -36 -45 -70 -25 -35 -45 -68 -45 -74 0 -6 -3 -12 -8
-14 -4 -2 -24 -41 -45 -88 -41 -91 -61 -172 -73 -290 -3 -41 -10 -79 -14 -85
-14 -18 -50 -495 -50 -662 0 -50 -4 -95 -10 -98 -5 -3 -10 -37 -10 -74 0 -67
-1 -69 -27 -75 -51 -13 -337 -45 -397 -46 -33 0 -99 -5 -148 -11 -70 -9 -91
-9 -104 1 -24 21 -53 87 -75 175 -11 44 -26 98 -34 120 -7 22 -23 105 -35 185
-12 80 -26 153 -31 162 -12 23 -12 105 0 112 5 3 12 22 15 41 4 20 33 86 66
148 32 62 68 139 80 172 12 33 27 71 34 85 8 14 19 43 26 65 7 22 21 58 30 80
10 22 26 78 35 125 9 47 20 99 26 116 12 40 12 91 -1 99 -15 9 -12 32 5 53 68
77 215 267 215 277 0 4 27 44 60 90 33 46 60 86 60 90 0 4 27 40 61 81 60 73
176 181 221 205 49 26 176 124 236 183 90 87 146 168 177 261 34 99 76 168
183 298 46 56 97 127 113 157 30 55 69 183 69 227 0 13 5 23 10 23 6 0 10 34
10 82 0 78 26 185 51 212 5 6 9 17 9 26 0 9 15 42 34 73 39 65 52 97 38 97
-34 0 -204 -332 -234 -458 -25 -106 -66 -191 -135 -280 -29 -37 -69 -92 -89
-122 -21 -30 -58 -80 -84 -110 -83 -100 -131 -172 -199 -302 -24 -46 -99 -125
-136 -142 -19 -9 -35 -21 -35 -26 0 -6 -6 -10 -12 -10 -7 0 -65 -43 -128 -96
-63 -52 -122 -98 -132 -102 -29 -12 -168 -143 -229 -216 -89 -107 -99 -119
-242 -285 -73 -84 -145 -171 -162 -192 -16 -21 -43 -48 -60 -61 -16 -12 -73
-61 -125 -108 -52 -47 -126 -112 -165 -143 -114 -94 -126 -104 -226 -193 -53
-47 -111 -104 -131 -127 -42 -51 -118 -176 -118 -194 0 -7 -4 -13 -8 -13 -19
0 -34 -84 -44 -255 -16 -242 -14 -425 6 -575 28 -202 34 -394 25 -765 -7 -323
-26 -573 -49 -665 -5 -19 -18 -73 -30 -119 -11 -46 -27 -98 -34 -115 -8 -17
-22 -56 -31 -86 -10 -30 -23 -64 -29 -75 -7 -11 -20 -40 -30 -65 -27 -68 -69
-150 -78 -150 -5 0 -50 -31 -102 -70 -51 -39 -96 -70 -101 -70 -4 0 -22 -11
-39 -24 -17 -12 -46 -31 -65 -41 -19 -9 -39 -21 -45 -26 -68 -56 -263 -169
-293 -169 -4 0 -24 -8 -43 -19 -19 -10 -46 -22 -60 -26 -14 -4 -89 -39 -167
-76 -79 -38 -150 -69 -158 -69 -8 0 -15 -6 -15 -12 0 -9 -2 -10 -8 -2 -4 7
-16 13 -27 15 -14 3 -25 20 -37 59 -10 30 -22 64 -27 75 -15 30 -29 92 -47
197 -24 147 -31 202 -50 378 -10 91 -20 167 -24 170 -3 3 -16 75 -29 160 -12
85 -26 161 -31 170 -4 8 -10 33 -14 55 -12 69 -37 169 -48 191 -6 13 -7 49 -3
90 3 38 9 168 11 289 l5 220 65 48 c35 27 81 55 102 64 20 8 51 21 67 28 59
26 169 47 218 42 64 -8 150 -62 260 -164 48 -46 92 -83 98 -83 55 0 -173 245
-274 295 -58 28 -60 28 -195 22 -75 -4 -175 -14 -221 -22 -46 -9 -85 -15 -86
-13 -2 2 5 22 16 46 12 26 26 94 35 175 8 73 19 141 23 152 5 11 14 58 20 105
6 47 17 108 25 135 34 121 69 231 76 240 5 6 16 33 25 60 10 28 26 70 37 94
25 56 63 177 94 301 14 52 29 104 34 115 6 11 22 70 36 130 14 61 30 128 35
150 31 126 16 835 -17 835 -20 0 -22 -21 -29 -330 -3 -157 -10 -314 -15 -350
-13 -94 -57 -305 -69 -327 -5 -11 -21 -66 -36 -124 -14 -57 -30 -111 -35 -121
-5 -9 -16 -45 -25 -80 -9 -34 -26 -83 -37 -107 -11 -25 -27 -63 -34 -85 -8
-21 -18 -44 -23 -50 -4 -6 -18 -40 -31 -76 -13 -36 -27 -69 -31 -75 -4 -5 -17
-48 -29 -95 -12 -47 -25 -92 -29 -100 -12 -22 -20 -61 -41 -202 -45 -294 -52
-329 -81 -393 -24 -51 -36 -180 -33 -352 3 -173 3 -176 -12 -123 -8 30 -19 64
-24 75 -5 11 -19 65 -30 120 -12 55 -25 109 -30 120 -5 11 -19 67 -31 125 -12
58 -26 110 -30 115 -4 6 -17 60 -28 120 -12 61 -26 119 -31 130 -5 11 -19 76
-31 145 -12 69 -25 127 -29 130 -4 3 -14 55 -24 115 -9 61 -21 137 -27 170
-26 150 -39 272 -45 421 l-7 161 32 44 c53 74 79 116 128 212 183 356 252 670
209 952 -9 61 -22 120 -28 132 -9 17 -6 27 13 55 13 18 29 43 36 55 22 43 179
219 363 408 102 104 200 208 217 230 109 135 247 296 284 331 84 80 179 144
215 144 51 0 277 30 299 40 11 5 45 11 75 15 76 8 213 35 225 45 6 4 37 15 70
25 33 9 80 26 105 37 124 57 341 165 385 193 28 17 57 34 65 37 8 3 52 30 97
59 133 87 202 129 213 129 5 0 10 4 10 8 0 5 12 14 28 21 15 7 50 28 79 47 28
19 54 34 58 34 12 0 208 132 292 197 45 35 85 63 90 63 5 0 16 8 25 18 8 9 44
40 78 67 60 48 140 137 140 156 0 17 -33 9 -64 -15 -53 -40 -199 -138 -215
-144 -9 -3 -18 -8 -21 -12 -15 -18 -234 -134 -440 -232 -138 -65 -243 -117
-425 -210 -152 -78 -252 -125 -315 -149 -19 -7 -37 -15 -40 -19 -11 -12 -108
-39 -159 -44 -29 -3 -60 -11 -67 -17 -11 -9 -24 -9 -54 1 -26 9 -51 10 -77 4
-55 -12 -285 -9 -378 5 -51 8 -83 19 -91 29 -7 10 -23 53 -35 97 -12 44 -26
85 -30 90 -4 6 -17 48 -28 95 -12 47 -25 92 -31 102 -20 36 -58 316 -67 501
l-4 89 43 39 c57 53 65 59 123 96 57 35 200 104 260 124 22 8 42 16 45 19 3 3
32 14 65 24 33 10 74 24 90 32 40 18 192 60 335 92 63 15 117 29 120 32 3 4
32 12 65 19 134 29 383 140 428 191 16 17 27 33 25 36 -2 2 -62 -16 -134 -40
-71 -24 -160 -51 -199 -61 -38 -9 -79 -21 -90 -26 -11 -5 -87 -20 -170 -33
-82 -14 -175 -30 -205 -36 -30 -6 -93 -18 -140 -27 -47 -8 -89 -19 -95 -24
-30 -28 -45 -7 -158 219 -63 126 -122 253 -132 283 -10 30 -24 63 -31 74 -8
11 -14 25 -14 32 0 7 -11 37 -25 66 -14 28 -34 85 -44 125 -21 79 -15 117 28
199 31 59 77 163 94 213 9 25 25 64 36 87 12 23 21 47 21 52 0 6 14 40 30 74
17 35 30 67 30 70 0 8 76 179 132 297 22 47 53 114 70 150 16 36 42 92 58 125
15 33 38 85 50 115 12 30 31 71 41 91 10 20 19 44 19 53 0 20 87 116 105 116
7 0 20 11 29 25 9 14 22 25 29 25 16 0 87 72 87 87 0 23 -23 25 -51 4 -15 -11
-31 -21 -35 -21 -11 0 -149 -94 -157 -107 -4 -7 -14 -13 -21 -13 -15 0 -66
-52 -66 -67 0 -6 -4 -13 -9 -15 -10 -3 -118 -214 -152 -298 -13 -30 -26 -57
-29 -60 -3 -3 -16 -30 -29 -60 -13 -30 -45 -100 -71 -155 -26 -55 -64 -138
-85 -185 -20 -47 -45 -103 -55 -125 -10 -22 -28 -67 -40 -100 -11 -33 -29 -78
-39 -100 -10 -22 -34 -75 -52 -118 l-34 -78 -9 63 c-17 126 -56 165 -56 56 0
-35 -3 -113 -7 -175 l-6 -112 -23 15 c-15 10 -24 12 -29 4 -7 -11 20 -102 40
-135 6 -11 20 -45 29 -75 9 -30 26 -75 36 -100 10 -25 41 -115 69 -200 70
-216 100 -301 110 -314 9 -12 49 -139 53 -170 2 -15 -8 -23 -42 -36 -71 -27
-161 -71 -207 -102 -23 -15 -48 -28 -57 -28 -21 0 -68 74 -90 140 -10 30 -22
64 -27 75 -15 35 -39 141 -45 202 -8 79 22 357 47 435 11 35 27 115 36 178 9
63 19 124 24 135 7 19 20 146 35 353 8 125 -3 272 -23 279 -22 9 -30 -11 -37
-91 -8 -87 -25 -187 -34 -201 -4 -5 -19 -75 -34 -155 -14 -80 -31 -170 -37
-200 -6 -30 -18 -93 -27 -140 -9 -47 -20 -89 -24 -95 -38 -50 -90 -599 -61
-628 6 -6 11 -21 11 -34 0 -34 35 -119 64 -158 14 -18 26 -39 26 -46 0 -6 19
-48 41 -93 l42 -82 -35 -50 c-44 -63 -75 -188 -59 -236 6 -17 11 -92 12 -167
1 -75 5 -183 10 -241 5 -58 13 -188 18 -290 5 -102 13 -204 16 -227 5 -30 4
-43 -4 -43 -6 0 -29 -12 -51 -26 -22 -15 -44 -24 -48 -20 -6 7 -20 53 -57 196
-8 30 -19 120 -26 200 -6 80 -16 156 -22 169 -17 35 -16 446 1 487 7 17 17
116 23 229 18 338 22 300 -49 396 -61 82 -175 250 -199 292 -6 11 -19 24 -27
29 -9 5 -16 13 -16 18 0 5 -18 35 -40 66 -22 32 -40 63 -40 71 0 7 -7 16 -15
19 -8 4 -15 11 -15 18 0 6 -17 36 -38 67 -33 48 -40 68 -50 149 -7 52 -17 99
-21 105 -5 5 -12 26 -16 45 -4 19 -12 51 -18 70 -14 44 -87 170 -99 170 -4 0
-8 7 -8 15 0 17 -170 195 -232 243 -24 19 -90 67 -148 108 -58 40 -112 80
-120 87 -24 21 -96 49 -116 45 -14 -2 -5 -13 36 -43 62 -44 111 -89 290 -266
218 -215 289 -368 290 -619 l0 -85 44 -48 c25 -26 49 -47 54 -47 6 0 23 -20
39 -46 72 -116 135 -207 176 -254 17 -20 117 -177 117 -185 0 -3 11 -22 24
-43 13 -20 27 -57 31 -82 4 -25 12 -51 19 -59 8 -10 10 -89 9 -265 -3 -296 12
-664 33 -793 7 -51 14 -108 14 -127 0 -19 5 -38 10 -41 6 -3 10 -18 10 -32 0
-34 40 -205 51 -219 5 -6 12 -31 15 -55 l6 -45 -63 -52 c-35 -29 -66 -52 -69
-52 -12 0 -70 168 -70 206 0 11 -5 25 -11 31 -6 6 -14 89 -19 189 -9 178 -22
277 -39 298 -5 6 -17 40 -27 76 -10 36 -27 85 -39 110 -12 25 -28 65 -35 90
-8 25 -17 47 -20 50 -4 3 -17 39 -30 80 -13 41 -26 80 -30 85 -4 6 -15 33 -24
60 -10 28 -26 68 -36 90 -9 22 -27 72 -40 110 -13 39 -26 72 -29 75 -4 3 -15
25 -26 50 -17 40 -75 149 -108 205 -6 11 -27 47 -47 80 -20 33 -41 69 -47 80
-12 19 -98 175 -171 309 -65 117 -230 451 -248 501 -10 28 -21 52 -24 55 -3 3
-14 32 -24 65 -10 33 -24 74 -31 90 -16 35 -55 195 -55 222 0 11 -5 24 -11 30
-16 16 -24 302 -11 383 28 167 62 347 71 365 5 11 17 49 26 85 9 36 23 79 30
95 8 17 23 64 35 105 12 41 26 80 30 85 4 6 15 35 25 65 10 30 28 75 40 100
13 25 28 63 35 85 7 22 16 45 20 50 8 10 44 124 80 255 30 109 40 233 40 499
0 140 4 268 9 285 5 17 17 85 27 151 9 66 22 138 29 160 7 22 20 74 30 115 21
92 104 233 159 269 13 9 66 50 117 92 52 41 108 84 124 95 45 29 280 221 329
269 12 12 32 28 46 37 84 55 470 446 470 475 0 7 9 17 20 23 11 6 20 15 20 21
0 5 16 32 35 60 29 42 159 299 250 494 13 28 42 91 65 140 54 116 97 201 124
245 11 19 28 47 36 62 8 15 31 53 50 84 97 156 156 272 185 364 9 30 23 69 30
85 33 78 50 208 49 380 -2 174 -10 245 -31 252 -9 3 -13 -40 -16 -159 -4 -186
-30 -335 -72 -415 -8 -15 -15 -34 -15 -42 0 -25 -110 -242 -159 -316 -26 -38
-50 -78 -54 -87 -3 -10 -11 -18 -17 -18 -5 0 -10 -5 -10 -11 0 -6 -18 -36 -40
-66 -22 -31 -40 -60 -40 -64 0 -4 -18 -37 -40 -73 -22 -36 -40 -70 -40 -76 0
-5 -3 -10 -7 -10 -5 0 -19 -27 -33 -60 -14 -33 -28 -60 -32 -60 -5 0 -8 -4 -8
-10 0 -20 -60 -137 -105 -203 -25 -37 -45 -69 -45 -71 0 -3 -23 -37 -51 -78
-28 -40 -54 -82 -59 -93 -9 -22 -121 -178 -167 -234 -110 -133 -250 -262 -416
-383 -58 -43 -108 -78 -112 -78 -3 0 -34 -18 -67 -40 -34 -22 -66 -40 -70 -40
-16 0 -244 -159 -296 -205 l-52 -47 0 39 c-1 21 -5 56 -10 78 -5 22 -20 96
-35 165 -14 69 -30 134 -35 145 -5 11 -18 65 -30 120 -11 55 -24 109 -30 120
-5 11 -21 70 -35 130 -14 61 -30 119 -35 130 -43 97 -39 399 8 650 21 109 44
461 39 585 -5 115 -27 240 -48 266 -5 6 -15 30 -24 53 -13 38 -81 159 -96 171
-3 3 -12 16 -19 30 -13 24 -65 89 -167 210 -40 47 -84 86 -131 114 -7 4 -14 1
-18 -8z m263 -4330 c-7 -170 -31 -387 -46 -421 -5 -11 -17 -54 -27 -95 -9 -41
-25 -94 -35 -117 -11 -23 -19 -45 -19 -49 0 -4 -31 -75 -69 -158 -37 -83 -74
-169 -81 -191 -7 -22 -22 -54 -33 -71 -19 -28 -22 -29 -37 -14 -18 18 -50 82
-50 100 0 6 -16 39 -35 71 -19 33 -35 64 -35 70 0 5 -4 9 -9 9 -5 0 -15 14
-22 32 -13 32 -203 230 -289 303 -25 21 -40 39 -33 42 6 2 40 25 75 51 35 26
74 54 88 63 24 16 282 226 327 267 12 11 26 21 31 23 21 8 205 156 250 201 26
25 49 47 51 47 2 1 1 -73 -2 -163z m-799 -736 c93 -107 141 -179 171 -255 12
-33 29 -73 36 -90 7 -16 21 -59 30 -95 9 -36 21 -74 26 -85 12 -28 36 -147 45
-225 3 -36 10 -69 14 -75 4 -5 13 -107 19 -225 19 -341 31 -501 41 -518 5 -10
19 -87 31 -172 11 -85 24 -159 28 -165 4 -5 18 -50 31 -100 12 -49 26 -95 31
-101 5 -6 19 -39 33 -75 13 -35 31 -77 39 -94 20 -38 58 -124 88 -195 13 -30
25 -57 29 -60 3 -3 16 -30 30 -60 14 -30 27 -57 30 -60 3 -3 15 -25 28 -50 13
-25 40 -76 62 -115 22 -38 51 -92 65 -120 14 -27 41 -77 60 -110 19 -33 44
-78 56 -100 12 -22 40 -71 63 -110 24 -38 53 -99 66 -135 13 -36 27 -69 31
-75 4 -5 17 -44 29 -85 11 -41 25 -82 29 -90 5 -9 19 -61 31 -115 13 -55 26
-104 30 -110 4 -5 13 -41 19 -80 6 -38 14 -83 17 -100 l6 -30 -38 36 c-22 19
-55 47 -74 61 -51 37 -292 152 -375 178 -22 7 -44 16 -50 20 -5 5 -44 18 -85
30 -41 13 -80 26 -85 31 -6 4 -60 17 -120 29 -61 12 -117 25 -126 30 -8 4 -45
11 -81 15 -58 6 -70 11 -102 44 -19 20 -48 66 -62 101 -23 56 -27 80 -28 170
-1 58 3 127 8 154 12 65 -7 59 -46 -15 -40 -76 -53 -169 -39 -283 6 -50 14
-102 17 -116 3 -14 2 -20 -3 -15 -4 6 -69 22 -143 35 -74 12 -139 26 -145 30
-5 4 -50 15 -100 25 -49 9 -108 23 -130 30 -22 7 -83 25 -135 40 -52 15 -99
30 -105 35 -5 4 -36 17 -67 29 -32 11 -76 32 -98 46 -22 14 -43 25 -48 25 -13
0 -241 157 -332 229 -155 124 -178 121 -62 -8 118 -131 310 -296 425 -365 64
-39 219 -116 232 -116 5 0 27 -9 49 -19 51 -24 311 -111 332 -111 9 0 30 -6
47 -14 18 -8 77 -24 132 -36 55 -12 109 -26 120 -31 11 -4 81 -20 155 -33 192
-35 423 -86 435 -96 5 -4 44 -18 85 -30 41 -12 80 -26 85 -30 6 -4 35 -15 65
-25 30 -9 64 -23 75 -30 11 -6 37 -18 58 -24 20 -7 59 -28 87 -47 27 -19 52
-34 55 -34 12 0 97 -92 147 -160 63 -84 111 -180 128 -255 7 -27 16 -59 20
-70 5 -11 12 -61 15 -110 9 -115 -3 -139 -119 -252 -118 -115 -346 -377 -346
-397 0 -4 -16 -30 -36 -59 -20 -28 -40 -61 -44 -72 -4 -11 -32 -57 -61 -102
-179 -274 -281 -467 -305 -580 -22 -103 -21 -400 1 -562 17 -119 31 -253 64
-591 11 -107 24 -226 30 -265 6 -38 22 -155 36 -260 14 -104 30 -199 35 -210
4 -11 18 -96 30 -190 12 -93 26 -179 30 -190 5 -11 18 -92 30 -180 12 -88 25
-169 30 -180 5 -11 18 -94 30 -185 12 -91 25 -172 29 -180 5 -8 18 -101 31
-205 12 -105 26 -199 30 -210 9 -20 41 -278 101 -820 39 -349 43 -405 30 -405
-6 0 -11 6 -11 14 0 8 -14 47 -31 87 -17 41 -40 97 -51 124 -11 28 -31 74 -44
103 -13 29 -24 56 -24 59 0 4 -9 25 -20 47 -24 52 -75 175 -101 246 -11 30
-25 63 -30 73 -14 26 -56 145 -85 242 -13 44 -29 89 -34 100 -11 22 -53 197
-76 315 -22 113 -31 282 -33 625 -3 343 -6 391 -51 745 -45 358 -48 394 -49
633 -1 219 -15 511 -31 622 -12 87 -58 296 -68 309 -5 6 -19 49 -32 95 -12 46
-26 91 -30 100 -5 9 -19 48 -31 86 -12 39 -25 75 -29 80 -4 6 -15 35 -25 65
-10 30 -28 79 -42 109 -13 30 -30 70 -38 90 -31 84 -81 196 -87 199 -5 2 -8 8
-8 14 0 15 -103 222 -112 226 -5 2 -8 9 -8 15 0 10 -58 118 -139 262 -13 22
-45 70 -72 108 -27 37 -49 70 -49 74 0 3 -12 22 -27 41 -33 44 -93 133 -93
138 0 2 -29 47 -65 99 -36 52 -65 97 -65 100 0 3 -18 33 -40 65 -22 32 -40 62
-40 65 0 3 -4 11 -10 18 -25 31 -100 148 -100 157 0 5 -9 15 -20 22 -11 7 -20
17 -20 21 0 27 -186 228 -266 287 -28 21 -80 51 -115 65 -74 32 -182 85 -189
94 -3 3 -22 15 -43 25 -45 23 -188 169 -213 217 -9 19 -20 36 -24 39 -12 9
-89 194 -101 245 -7 28 -16 52 -20 55 -28 19 -36 420 -10 520 28 106 60 209
73 235 9 17 24 59 34 95 10 35 35 91 56 125 42 67 52 85 165 305 124 241 221
421 233 430 3 3 15 23 26 45 11 22 42 78 68 125 27 47 56 99 64 115 8 17 20
37 27 45 7 8 23 35 36 60 13 25 27 49 32 55 18 24 87 136 87 142 0 4 27 46 60
95 33 48 60 90 60 94 0 3 26 43 59 88 32 46 64 93 70 105 7 12 50 68 97 124
47 56 100 119 117 140 18 22 86 100 152 175 66 76 138 158 160 185 l39 47 26
-32 c14 -18 58 -71 98 -118z m-9185 -1292 c27 -38 54 -68 58 -68 5 0 9 -5 9
-11 0 -6 29 -45 63 -88 35 -42 72 -89 83 -106 10 -16 25 -36 32 -45 27 -30
152 -199 152 -204 0 -4 42 -62 94 -130 52 -68 99 -133 105 -145 10 -18 3 -30
-62 -106 -41 -48 -80 -98 -88 -113 -8 -15 -21 -40 -30 -55 l-17 -28 -17 73
c-10 40 -21 78 -26 83 -4 6 -17 48 -29 95 -12 47 -25 90 -30 95 -4 6 -15 35
-25 65 -10 30 -23 66 -31 80 -7 14 -38 77 -69 140 -55 111 -139 252 -219 365
-35 49 -39 62 -44 132 l-5 78 23 -20 c12 -11 45 -50 73 -87z m781 -1025 c25
-32 61 -76 80 -98 19 -22 75 -87 125 -145 50 -58 91 -111 91 -117 0 -15 -16
-17 -25 -3 -9 14 -148 13 -163 -2 -7 -7 -12 -15 -12 -18 0 -6 64 -36 130 -60
72 -27 237 -177 261 -237 5 -13 13 -23 19 -23 5 0 10 -5 10 -11 0 -7 15 -32
33 -58 66 -93 189 -361 229 -496 11 -38 24 -75 28 -80 5 -6 18 -51 30 -100 12
-50 25 -99 30 -110 5 -11 12 -36 15 -55 4 -19 9 -44 12 -55 4 -15 -5 -10 -34
18 -21 20 -42 37 -46 37 -11 0 -144 139 -196 205 -40 51 -349 389 -420 461
-17 16 -31 33 -31 37 0 9 -154 200 -175 217 -8 7 -15 17 -15 22 0 5 -35 44
-77 87 -92 91 -109 122 -123 219 -14 98 6 183 63 272 23 36 45 66 49 68 4 2
18 21 30 43 12 21 25 39 29 39 4 0 28 -26 53 -57z m20196 -2489 c69 -14 191
-37 273 -51 81 -15 147 -29 147 -33 0 -3 -21 -16 -47 -28 -27 -13 -75 -38
-108 -57 -83 -47 -866 -435 -878 -435 -3 0 -32 -12 -64 -26 -93 -43 -360 -92
-506 -94 l-49 0 129 137 c233 250 367 384 433 432 105 77 253 143 360 160 57
10 83 13 165 19 11 1 76 -10 145 -24z m-1911 -794 c35 -6 79 -19 98 -28 l34
-18 -60 -42 c-33 -23 -63 -42 -66 -42 -17 0 -163 -110 -270 -204 -159 -140
-194 -167 -290 -226 -113 -70 -146 -85 -230 -109 -44 -12 -89 -26 -100 -31
-11 -5 -54 -19 -95 -32 -41 -12 -77 -25 -80 -29 -3 -3 -43 -16 -90 -29 -47
-13 -87 -27 -90 -30 -3 -3 -43 -17 -90 -30 -47 -13 -87 -26 -90 -30 -3 -3 -34
-14 -70 -24 -36 -9 -78 -24 -95 -31 -16 -7 -70 -25 -120 -40 -49 -14 -99 -30
-110 -35 -21 -10 -178 -51 -181 -47 -3 5 49 106 76 147 16 25 35 56 42 70 7
14 29 51 50 82 21 31 38 60 38 63 0 3 18 30 40 60 42 57 108 116 165 150 19
11 68 44 109 73 42 28 78 52 81 52 3 0 45 25 93 56 223 145 236 152 307 191
56 31 155 73 170 73 6 0 22 6 37 14 25 13 119 31 213 40 79 8 511 -3 574 -14z
m641 -250 c36 -6 74 -16 85 -20 23 -10 133 -26 247 -36 88 -7 87 -14 -2 -54
-30 -14 -57 -27 -60 -30 -3 -3 -30 -16 -60 -30 -30 -14 -57 -28 -60 -31 -5 -6
-36 -16 -220 -69 -82 -24 -232 -50 -288 -50 -23 0 -50 -4 -60 -9 -9 -5 -69
-18 -132 -30 -63 -12 -119 -26 -125 -30 -5 -5 -28 -14 -50 -21 -22 -7 -56 -21
-75 -33 -88 -51 -281 -146 -330 -162 -30 -10 -59 -21 -65 -25 -5 -4 -26 -11
-45 -15 l-35 -6 30 20 c17 12 34 21 40 21 5 0 52 21 105 46 106 52 195 113
277 190 73 69 309 224 340 224 6 0 13 3 15 8 4 10 164 87 213 102 22 7 45 17
52 22 20 16 96 37 118 33 11 -2 49 -9 85 -15z m-9172 -152 c-5 -114 -27 -245
-48 -293 -5 -11 -16 -49 -25 -85 -9 -36 -27 -86 -40 -112 -14 -26 -25 -52 -25
-58 0 -6 -9 -30 -21 -53 -11 -23 -30 -66 -41 -95 -11 -29 -31 -72 -44 -95
l-25 -42 6 55 c10 93 25 181 35 198 5 10 19 53 30 97 11 44 25 89 30 100 5 11
20 65 33 120 35 144 69 251 102 323 16 34 31 62 33 62 3 0 2 -55 0 -122z
m11303 -87 c91 -5 174 -13 185 -19 10 -6 51 -20 90 -31 100 -29 239 -131 446
-328 161 -154 193 -178 288 -224 98 -47 128 -58 198 -73 41 -8 77 -17 80 -21
7 -7 -37 -44 -52 -45 -5 0 -46 -22 -92 -50 -46 -27 -87 -50 -91 -50 -5 0 -24
-11 -43 -24 -19 -13 -97 -55 -173 -94 -106 -55 -143 -70 -156 -62 -10 5 -102
96 -206 202 -175 179 -368 365 -447 431 -85 70 -247 197 -252 197 -3 0 -50 33
-104 73 -53 41 -105 76 -114 80 -10 3 -18 11 -18 17 0 5 -6 10 -14 10 -8 0
-18 5 -21 10 -8 12 259 13 496 1z m76 -740 l327 -323 -44 6 c-64 10 -188 76
-294 157 -99 75 -108 84 -200 209 -61 83 -89 129 -148 239 -16 30 -35 63 -43
75 -28 39 -15 39 30 0 25 -22 193 -185 372 -363z m-8523 -13 c-4 -24 -10 -47
-14 -53 -4 -5 -18 -62 -30 -125 -12 -63 -26 -119 -30 -125 -4 -5 -20 -50 -35
-100 -15 -49 -34 -99 -41 -110 -8 -11 -14 -26 -14 -33 0 -13 -33 -92 -95 -226
-38 -84 -51 -180 -37 -286 7 -47 15 -113 18 -147 4 -35 10 -63 13 -63 4 0 13
-24 21 -52 7 -29 25 -78 39 -108 36 -77 36 -156 -2 -228 -41 -79 -74 -119
-258 -316 -36 -39 -73 -82 -82 -95 -14 -21 -15 9 -16 377 0 235 -4 408 -9 419
-6 10 -13 97 -17 193 -6 148 -4 182 9 220 9 25 27 94 41 154 27 119 38 148
103 275 60 118 95 163 219 278 134 123 212 193 218 193 3 0 2 -19 -1 -42z
m-4285 -786 c-11 -186 -7 -622 7 -691 7 -33 5 -32 -62 36 -38 38 -96 89 -129
114 -33 24 -66 49 -73 55 -12 9 -12 22 3 90 10 43 25 95 35 114 43 85 150 309
165 345 30 75 58 135 62 131 2 -2 -1 -89 -8 -194z m4978 -859 c-4 -38 -7 -91
-7 -119 0 -48 -2 -52 -42 -80 -23 -16 -110 -96 -193 -179 -337 -334 -629 -594
-649 -579 -7 5 -32 21 -55 37 -22 15 -41 31 -41 35 0 4 -12 14 -28 23 -39 23
-86 120 -78 164 4 18 10 35 14 37 4 2 17 23 30 48 49 95 76 138 138 215 90
112 128 154 137 155 4 0 39 24 77 53 39 29 89 64 112 77 121 67 219 112 268
126 30 8 64 20 75 26 11 6 67 14 125 18 58 4 109 8 114 8 5 1 6 -27 3 -65z
m-83 -1280 c-3 -16 -9 -37 -14 -48 -5 -11 -18 -78 -30 -149 -12 -72 -26 -137
-31 -145 -4 -9 -18 -63 -29 -120 -12 -57 -26 -111 -30 -120 -5 -9 -19 -52 -31
-96 -12 -44 -25 -84 -29 -90 -4 -5 -17 -41 -29 -80 -40 -131 -157 -342 -278
-504 -76 -101 -319 -346 -371 -375 -9 -5 -23 -18 -30 -28 -7 -10 -17 -18 -23
-18 -5 0 -41 -24 -79 -53 -39 -30 -94 -66 -123 -82 -28 -15 -79 -42 -112 -60
-33 -17 -73 -39 -90 -48 -67 -35 -132 -64 -160 -71 -16 -4 -43 -13 -60 -20
-38 -17 -138 -46 -155 -46 -22 0 -4 98 27 144 23 34 28 54 31 116 1 41 5 85 7
97 6 28 55 84 224 259 232 241 284 310 382 509 40 83 89 175 108 205 50 80
152 196 224 255 34 29 121 105 192 169 72 65 153 135 180 157 28 22 95 75 150
118 55 43 116 95 134 115 42 43 53 45 45 9z m-13839 -1401 c-3 -3 -11 0 -18 7
-9 10 -8 11 6 5 10 -3 15 -9 12 -12z m17765 -976 c0 -24 -222 -196 -253 -196
-4 0 -32 -11 -60 -24 -29 -13 -79 -34 -112 -46 -33 -12 -65 -26 -71 -31 -7 -5
-40 -15 -75 -21 -41 -7 -112 -34 -199 -76 -181 -86 -235 -120 -365 -224 -137
-109 -120 -96 -185 -139 -65 -42 -189 -110 -244 -133 -34 -14 -24 -1 96 126
74 79 161 165 194 191 55 45 86 64 219 137 28 16 104 58 169 95 66 37 136 73
156 80 21 7 46 18 56 24 11 6 57 22 104 37 47 14 94 30 105 34 11 5 54 19 95
31 41 11 80 25 85 29 6 4 34 15 63 24 30 8 72 24 95 34 113 52 127 57 127 48z
m5202 -488 c0 -44 -7 -73 -31 -120 -57 -116 -75 -143 -139 -203 -78 -75 -148
-145 -207 -210 -42 -46 -47 -49 -58 -32 -26 41 -111 145 -154 189 -45 46 -46
47 -30 72 33 50 141 157 211 209 69 52 115 81 221 142 29 17 77 45 106 62 l54
33 14 -43 c7 -23 13 -68 13 -99z m-682 -495 c0 -7 4 -13 9 -13 5 0 12 -11 15
-24 3 -13 26 -49 51 -79 25 -31 45 -60 45 -66 0 -6 5 -11 10 -11 28 0 0 -40
-95 -139 -141 -146 -154 -183 -116 -342 20 -86 59 -143 146 -212 l50 -40 -115
6 c-63 4 -163 7 -222 7 -73 0 -108 4 -108 11 0 6 21 39 46 73 54 71 67 98 90
192 10 38 20 71 24 74 4 3 17 61 29 130 12 69 26 134 31 145 5 11 11 50 14 86
7 72 32 180 45 189 4 3 11 18 15 35 7 29 8 29 22 11 8 -11 14 -26 14 -33z" />
    <path d="M27140 20411 c19 -16 37 -27 40 -25 5 6 -52 53 -65 54 -5 0 6 -13 25
-29z" />
    <path d="M19943 12543 c-22 -4 -23 -9 -23 -89 0 -79 1 -84 23 -88 239 -45 342
-97 390 -198 49 -104 80 -365 76 -653 -1 -82 2 -850 7 -1705 13 -2278 12
-3086 -4 -3189 -27 -168 -73 -238 -201 -305 -59 -30 -162 -61 -231 -68 -24 -3
-25 -6 -28 -86 -2 -60 1 -84 10 -87 7 -3 517 -1 1133 3 l1120 7 3 83 c2 61 -1
83 -10 86 -7 2 -44 11 -82 20 -143 33 -243 102 -291 200 -48 100 -56 197 -65
766 -5 289 -9 904 -9 1368 l-1 843 50 75 c73 107 202 266 258 314 303 269 657
258 795 -24 72 -147 77 -268 80 -1811 2 -1189 1 -1287 -16 -1375 -22 -118 -55
-188 -114 -240 -59 -52 -162 -103 -241 -120 l-63 -13 3 -84 3 -84 965 0 c531
1 1040 4 1133 8 l167 6 0 37 c0 21 -3 57 -6 82 l-6 45 -91 17 c-183 35 -294
112 -331 230 -52 163 -53 209 -67 1696 -9 1055 -13 1160 -49 1416 -45 320
-140 523 -333 711 -101 100 -123 118 -212 175 -92 60 -196 104 -314 135 -130
34 -379 43 -521 19 -338 -58 -625 -227 -979 -575 -62 -61 -115 -111 -117 -111
-2 0 -4 251 -4 558 0 306 -3 884 -7 1285 l-6 727 -886 -1 c-487 -1 -896 -4
-908 -6z" />
    <path d="M30145 12093 c-306 -531 -693 -1004 -1137 -1390 l-126 -110 -288 -6
c-158 -4 -464 -7 -681 -7 l-393 0 0 -90 0 -90 53 0 c71 -1 190 -23 259 -49 79
-30 148 -95 184 -173 27 -60 29 -70 28 -193 -1 -243 -60 -434 -485 -1553 -161
-425 -296 -769 -300 -765 -9 10 -796 1790 -866 1956 -77 188 -133 369 -140
458 -5 62 -2 83 14 120 48 109 130 160 298 187 l105 16 0 86 0 85 -942 -2
c-519 -1 -1052 -5 -1185 -9 l-243 -6 0 -84 c0 -83 1 -85 28 -96 219 -90 333
-185 448 -370 73 -118 196 -361 303 -598 46 -102 411 -926 812 -1833 l727
-1647 -113 -308 c-171 -467 -244 -638 -350 -817 -136 -231 -321 -353 -432
-285 -47 28 -64 70 -74 184 -21 228 -31 298 -48 349 -82 237 -246 352 -501
351 -171 -1 -292 -54 -408 -178 -69 -74 -104 -133 -140 -236 -23 -67 -26 -90
-26 -220 0 -133 2 -151 27 -225 16 -44 40 -100 54 -125 107 -188 297 -331 518
-390 100 -27 347 -39 451 -21 228 39 409 135 578 305 105 106 176 217 300 466
206 415 258 545 1116 2805 828 2181 828 2182 950 2425 l50 100 239 0 238 0 6
-197 c4 -108 7 -593 7 -1077 1 -952 12 -1669 30 -1836 6 -58 18 -132 26 -165
75 -289 368 -590 683 -700 115 -40 206 -56 352 -62 548 -22 957 224 1227 736
l59 112 48 -78 c89 -142 156 -227 284 -353 189 -188 369 -300 610 -380 208
-69 409 -100 653 -100 580 1 1045 227 1408 685 72 91 201 283 257 383 l38 67
3 -40 c2 -22 15 -272 30 -555 l27 -515 77 -3 76 -3 32 60 c44 83 92 135 146
161 69 34 133 24 364 -55 389 -132 586 -171 835 -162 295 11 543 88 779 244
93 62 280 249 339 339 312 477 362 1038 132 1488 -65 129 -145 234 -270 360
-181 182 -371 331 -775 608 -604 413 -798 575 -876 732 -36 74 -39 86 -39 166
0 79 3 92 38 162 44 91 131 176 220 219 199 94 474 43 751 -138 89 -58 263
-232 338 -338 92 -130 177 -279 268 -468 l85 -177 82 0 81 0 -4 58 c-6 73 -74
1399 -74 1435 l0 27 -83 0 -84 0 -33 -47 c-96 -136 -141 -173 -228 -188 -60
-10 -125 8 -261 72 -251 119 -447 166 -696 165 -526 -1 -890 -188 -1148 -588
-105 -162 -205 -423 -208 -542 l0 -27 -11 25 c-45 108 -170 341 -222 414 -215
299 -513 526 -830 631 -387 129 -871 85 -1269 -115 -398 -201 -743 -555 -947
-975 -114 -234 -186 -473 -231 -770 -27 -179 -38 -613 -20 -803 32 -336 107
-650 212 -881 23 -50 25 -61 11 -48 -10 10 -21 17 -25 17 -3 0 -35 -44 -71
-97 -155 -233 -315 -353 -490 -370 -55 -5 -71 -2 -119 20 -111 51 -190 151
-216 277 -22 105 -30 495 -36 1843 l-5 1357 273 0 c151 0 389 3 530 7 l257 6
0 235 0 235 -528 -5 -529 -4 -6 390 c-4 214 -7 582 -7 818 l0 428 -78 0 -78 0
-79 -137z m2999 -1674 c87 -16 136 -41 204 -104 158 -146 251 -370 287 -695
20 -178 35 -441 35 -616 l0 -141 -172 -6 c-95 -4 -388 -7 -650 -7 l-478 0 0
108 c1 457 67 818 201 1084 112 223 219 331 368 370 78 20 127 22 205 7z
m1825 -1892 c144 -177 436 -411 986 -792 369 -255 559 -412 639 -529 107 -155
131 -388 56 -542 -163 -334 -600 -370 -1023 -86 -192 129 -351 290 -480 487
-71 109 -184 334 -235 470 l-38 100 -82 3 -83 3 7 -90 c6 -85 6 -90 -12 -85
-15 3 -28 -10 -59 -57 -118 -185 -277 -370 -404 -471 -84 -68 -244 -148 -346
-175 -109 -28 -362 -26 -473 5 -166 45 -313 131 -445 261 -330 321 -520 793
-572 1422 l-6 76 758 6 c417 4 968 7 1226 7 l467 0 -6 83 -6 82 36 -53 c19
-29 62 -86 95 -125z" />
    <path d="M18075 10650 c-196 -30 -385 -101 -550 -208 -151 -97 -280 -223 -418
-410 l-62 -83 -6 283 c-3 156 -6 284 -7 286 -4 5 -1668 1 -1765 -5 l-107 -6 0
-83 0 -83 48 -6 c247 -30 367 -92 423 -219 50 -113 60 -204 70 -631 5 -220 8
-587 8 -815 -2 -612 10 -3034 16 -3480 8 -516 -9 -730 -64 -838 -56 -107 -215
-192 -392 -208 l-69 -7 0 -90 0 -90 758 6 c416 4 988 7 1270 7 l512 0 0 88 0
89 -140 6 c-225 10 -319 39 -403 124 -80 79 -112 179 -127 405 -5 79 -10 521
-10 983 l0 840 118 -116 c64 -64 143 -137 175 -162 387 -308 977 -381 1473
-182 394 159 706 471 902 900 314 690 360 1639 116 2390 -230 705 -673 1160
-1263 1296 -99 23 -404 34 -506 19z m-122 -585 c215 -45 381 -224 484 -520
114 -333 174 -914 159 -1543 -22 -874 -152 -1334 -428 -1513 -85 -54 -166 -73
-285 -66 -268 15 -525 179 -764 487 l-66 85 -7 1192 -7 1192 52 103 c225 450
527 654 862 583z" />
    <path d="M13120 10629 c-458 -47 -842 -225 -1142 -531 -211 -216 -397 -509
-519 -816 l-52 -133 -33 115 c-99 343 -239 606 -442 825 -416 451 -951 619
-1552 485 -646 -145 -1221 -686 -1458 -1374 -99 -289 -142 -550 -149 -923 -12
-564 69 -975 269 -1377 122 -247 224 -387 405 -560 316 -301 725 -451 1235
-450 580 1 1047 228 1408 685 116 148 264 381 345 546 l38 76 77 -151 c333
-659 792 -1009 1455 -1112 142 -21 434 -29 585 -15 496 47 876 223 1205 555
364 368 590 876 644 1446 44 464 4 877 -124 1264 -162 487 -428 854 -799 1101
-252 168 -524 276 -821 326 -141 24 -430 33 -575 18z m-3326 -330 c87 -16 136
-41 204 -104 158 -146 251 -370 287 -695 20 -178 35 -441 35 -616 l0 -141
-172 -6 c-95 -4 -388 -7 -650 -7 l-478 0 0 108 c1 457 67 818 201 1084 112
223 219 331 368 370 78 20 127 22 205 7z m3703 -13 c97 -21 170 -62 244 -136
138 -139 221 -336 263 -625 36 -246 41 -379 41 -1150 0 -878 -16 -1214 -70
-1515 -70 -382 -271 -598 -575 -617 -152 -10 -281 36 -397 142 -144 130 -227
319 -267 606 -52 368 -71 779 -62 1339 16 989 61 1395 184 1650 71 147 238
280 387 308 73 14 181 13 252 -2z m-2221 -2054 c1 -209 14 -347 50 -532 24
-122 86 -346 105 -382 13 -24 5 -23 -39 7 -20 14 -41 25 -47 25 -5 0 -28 -28
-50 -62 -120 -186 -277 -370 -404 -470 -84 -68 -244 -148 -346 -175 -109 -28
-362 -26 -473 5 -166 45 -313 131 -445 261 -331 322 -520 792 -572 1423 l-7
78 509 3 c279 1 780 3 1113 5 l605 2 1 -188z" />
    <path d="M5455 10594 c-371 -28 -636 -97 -889 -234 -258 -139 -485 -344 -642
-581 -185 -278 -265 -595 -234 -929 14 -152 31 -236 72 -355 111 -324 328
-584 658 -788 88 -54 274 -144 397 -191 l87 -34 -55 -23 c-176 -74 -406 -210
-550 -327 -307 -247 -475 -602 -439 -924 34 -300 201 -522 538 -714 44 -25 70
-45 62 -47 -318 -96 -483 -179 -596 -298 -163 -174 -203 -402 -105 -604 135
-276 424 -446 948 -555 316 -66 599 -92 993 -93 441 -1 769 38 1125 133 384
102 620 226 831 435 264 263 384 544 384 900 0 329 -98 570 -314 771 -200 187
-426 281 -801 333 -275 38 -410 43 -1120 40 -745 -4 -748 -3 -866 57 -194 98
-259 319 -154 530 40 83 135 178 217 220 102 52 159 57 508 43 173 -6 352 -9
397 -5 247 19 587 125 853 268 615 328 913 880 818 1513 -24 162 -89 338 -168
455 -52 78 -152 200 -209 255 -23 21 -41 43 -41 47 0 4 191 8 425 8 l425 0 -2
258 -3 257 -770 5 -770 5 -80 31 c-101 40 -337 99 -480 119 -109 16 -355 26
-450 19z m347 -305 c92 -20 158 -58 235 -135 184 -185 268 -515 289 -1134 12
-357 -23 -717 -90 -930 -52 -166 -165 -313 -300 -391 -162 -93 -379 -93 -525
0 -46 30 -137 117 -179 171 -39 50 -91 156 -115 235 -66 210 -89 421 -89 810
0 640 66 972 235 1176 79 95 198 175 294 198 55 13 184 13 245 0z m603 -4959
c352 -16 481 -38 622 -106 88 -42 182 -127 214 -192 32 -66 33 -200 1 -287
-97 -263 -437 -437 -980 -500 -434 -50 -993 -17 -1272 76 -191 63 -369 207
-443 358 -30 62 -32 72 -32 176 0 102 2 115 31 175 50 106 170 209 291 251 52
18 213 45 313 52 110 8 1056 6 1255 -3z" />
  </g>
</svg>